<?xml version="1.0" encoding="utf-8"?>
<!-- Generator: Adobe Illustrator 18.1.1, SVG Export Plug-In . SVG Version: 6.00 Build 0)  -->
<svg version="1.1" id="Apply-Online-Icon-SVG" xmlns="http://www.w3.org/2000/svg" xmlns:xlink="http://www.w3.org/1999/xlink" x="0px" y="0px"
	 viewBox="0 0 311.2 269.2" enable-background="new 0 0 311.2 269.2" xml:space="preserve">
<g>
	<g>
		<path fill="#999999" d="M230.7,102.9c-4.1-9.7-10-18.4-17.5-25.9c-7.5-7.5-16.2-13.3-25.9-17.5c-10-4.3-20.7-6.4-31.7-6.4
			c-11,0-21.7,2.2-31.7,6.4c-9.7,4.1-18.4,10-25.9,17.5c-7.5,7.5-13.3,16.2-17.5,25.9c-4.3,10-6.4,20.7-6.4,31.7s2.2,21.7,6.4,31.7
			c4.1,9.7,10,18.4,17.5,25.9c7.5,7.5,16.2,13.3,25.9,17.5c10,4.3,20.7,6.4,31.7,6.4c11,0,21.7-2.2,31.7-6.4
			c9.7-4.1,18.4-10,25.9-17.5c7.5-7.5,13.3-16.2,17.5-25.9c4.3-10,6.4-20.7,6.4-31.7S234.9,113,230.7,102.9z M155.6,198.5
			c-35.3,0-63.9-28.6-63.9-63.9s28.6-63.9,63.9-63.9s63.9,28.6,63.9,63.9S190.9,198.5,155.6,198.5z"/>
		<path fill="#999999" d="M103.5,151.7l25.9-16l12.7,24c0,0,31.9-58.3,52.4-65.8c0,0-4.7,22.4,1.9,34.3c0,0-20.3,6-52.9,55.7
			C143.6,183.9,116.4,153.2,103.5,151.7z"/>
	</g>
</g>
</svg>
