<?xml version="1.0" encoding="utf-8"?>
<!-- Generator: Adobe Illustrator 18.1.1, SVG Export Plug-In . SVG Version: 6.00 Build 0)  -->
<svg version="1.1" id="equalhousinglogo" xmlns="http://www.w3.org/2000/svg" xmlns:xlink="http://www.w3.org/1999/xlink" x="0px" y="0px"
	 viewBox="0 0 72 72" enable-background="new 0 0 72 72" xml:space="preserve">
<g>
	<g>
		<path d="M36.1,9.8L10.4,22v5.6l2.4-1.1v21.2h46.7V26.6l2.4,1.1V22L36.1,9.8z M54.6,42.8H17.7V24.2l18.4-8.7l18.4,8.8L54.6,42.8z"
			/>
		<polygon points="45.9,33.3 45.9,38.4 26.3,38.4 26.3,33.3 45.9,33.3 		"/>
		<polygon points="26.3,24.9 45.9,24.9 45.9,30.2 26.3,30.2 26.3,24.9 		"/>
	</g>
	<g>
		<path d="M15,62.4c1.3,0,2.1-0.9,2.1-2.1c0-1.1-0.9-2.1-2.1-2.1c-1.3,0-2.1,1-2.1,2.1C12.9,61.5,13.8,62.4,15,62.4L15,62.4z
			 M15,59.1c0.7,0,1.3,0.6,1.3,1.3c0,0.6-0.5,1.3-1.3,1.3c-0.7,0-1.3-0.8-1.3-1.3C13.8,59.7,14.3,59.1,15,59.1L15,59.1z"/>
		<path d="M19.5,60.9h0.4c0.9,0,1.4-0.4,1.4-1.2c0-0.9-0.6-1.2-1.5-1.2h-1.1v3.9h0.8V60.9L19.5,60.9z M19.5,59.1h0.1
			c0.5,0,0.8,0.1,0.8,0.6c0,0.5-0.3,0.6-0.8,0.6h-0.2V59.1L19.5,59.1z"/>
		<path d="M23.5,60.9h0.4c0.9,0,1.4-0.4,1.4-1.2c0-0.9-0.6-1.2-1.5-1.2h-1.1v3.9h0.8V60.9L23.5,60.9z M23.5,59.1h0.1
			c0.5,0,0.8,0.1,0.8,0.6c0,0.5-0.3,0.6-0.8,0.6h-0.2V59.1L23.5,59.1z"/>
		<path d="M28.7,62.4c1.3,0,2.1-0.9,2.1-2.1c0-1.1-0.9-2.1-2.1-2.1c-1.3,0-2.1,1-2.1,2.1C26.6,61.5,27.4,62.4,28.7,62.4L28.7,62.4z
			 M28.7,59.1c0.7,0,1.3,0.6,1.3,1.3c0,0.6-0.5,1.3-1.3,1.3c-0.7,0-1.3-0.8-1.3-1.3C27.4,59.7,28,59.1,28.7,59.1L28.7,59.1z"/>
		<path d="M34,60.7c0.6-0.1,0.9-0.6,0.9-1.1c0-0.8-0.6-1.2-1.4-1.2h-1.1v3.9h0.8v-1.6h0l1,1.6h1L34,60.7L34,60.7z M33.1,59.1h0.1
			c0.4,0,0.8,0.1,0.8,0.6c0,0.5-0.3,0.6-0.8,0.6h-0.1V59.1L33.1,59.1z"/>
		<polygon points="37.8,59.1 38.7,59.1 38.7,58.4 36.1,58.4 36.1,59.1 37,59.1 37,62.3 37.8,62.3 37.8,59.1 		"/>
		<path d="M40,60.8c0,1,0.4,1.7,1.6,1.7c1.2,0,1.6-0.7,1.6-1.7v-2.3h-0.8v2.2c0,0.5,0,1.2-0.8,1.2c-0.7,0-0.8-0.7-0.8-1.2v-2.2H40
			V60.8L40,60.8z"/>
		<polygon points="44.9,62.3 45.7,62.3 45.7,59.7 45.7,59.7 48,62.4 48.6,62.4 48.6,58.4 47.8,58.4 47.8,61.1 47.8,61.1 45.5,58.3 
			44.9,58.3 44.9,62.3 		"/>
		<polygon points="51.1,58.4 50.3,58.4 50.3,62.3 51.1,62.3 51.1,58.4 		"/>
		<polygon points="54.2,59.1 55.1,59.1 55.1,58.4 52.5,58.4 52.5,59.1 53.4,59.1 53.4,62.3 54.2,62.3 54.2,59.1 		"/>
		<polygon points="57.4,60.5 57.4,62.3 58.2,62.3 58.2,60.5 59.6,58.4 58.6,58.4 57.8,59.8 57,58.4 56,58.4 57.4,60.5 		"/>
		<polygon points="15.3,53 15.3,52.4 13.1,52.4 13.1,56.3 15.3,56.3 15.3,55.6 13.9,55.6 13.9,54.6 15.3,54.6 15.3,53.9 13.9,53.9 
			13.9,53 15.3,53 		"/>
		<path d="M20.1,56.4l-0.6-0.6c0.3-0.4,0.5-0.9,0.5-1.4c0-1.1-0.9-2.1-2.1-2.1c-1.3,0-2.1,1-2.1,2.1c0,1.1,0.9,2.1,2.1,2.1
			c0.4,0,0.8-0.1,1.1-0.3l0.3,0.3L20.1,56.4L20.1,56.4z M18.5,54.7l-0.9,0.1l0.7,0.7c-0.1,0.1-0.3,0.1-0.5,0.1
			c-0.8,0-1.3-0.6-1.3-1.3c0-0.7,0.4-1.4,1.3-1.4c0.8,0,1.3,0.7,1.3,1.3c0,0.3-0.1,0.6-0.3,0.8L18.5,54.7L18.5,54.7z"/>
		<path d="M20.5,54.7c0,1,0.4,1.7,1.6,1.7c1.2,0,1.6-0.7,1.6-1.7v-2.3h-0.8v2.2c0,0.5,0,1.2-0.8,1.2s-0.8-0.7-0.8-1.2v-2.2h-0.8
			V54.7L20.5,54.7z"/>
		<path d="M26.8,55.5l0.3,0.8H28l-1.6-4h-0.7l-1.7,4h0.9l0.4-0.8H26.8L26.8,55.5z M26.6,54.8h-1l0.5-1.4h0L26.6,54.8L26.6,54.8z"/>
		<polygon points="29.2,52.4 28.4,52.4 28.4,56.3 30.4,56.3 30.4,55.6 29.2,55.6 29.2,52.4 		"/>
		<polygon points="34.9,53.9 34.9,52.4 34.1,52.4 34.1,56.3 34.9,56.3 34.9,54.5 36.5,54.5 36.5,56.3 37.3,56.3 37.3,52.4 
			36.5,52.4 36.5,53.9 34.9,53.9 		"/>
		<path d="M40,56.4c1.3,0,2.1-0.9,2.1-2.1c0-1.1-0.9-2.1-2.1-2.1c-1.3,0-2.1,1-2.1,2.1C37.8,55.4,38.7,56.4,40,56.4L40,56.4z M40,53
			c0.7,0,1.3,0.6,1.3,1.3c0,0.6-0.5,1.3-1.3,1.3c-0.7,0-1.3-0.8-1.3-1.3C38.7,53.7,39.2,53,40,53L40,53z"/>
		<path d="M42.6,54.7c0,1,0.4,1.7,1.6,1.7c1.2,0,1.6-0.7,1.6-1.7v-2.3h-0.8v2.2c0,0.5,0,1.2-0.8,1.2c-0.7,0-0.8-0.7-0.8-1.2v-2.2
			h-0.8V54.7L42.6,54.7z"/>
		<path d="M48.9,52.7c-0.3-0.3-0.8-0.4-1.2-0.4c-0.7,0-1.3,0.5-1.3,1.2c0,0.6,0.4,0.9,1,1.1c0.3,0.1,0.7,0.2,0.7,0.6
			c0,0.3-0.2,0.6-0.6,0.6c-0.4,0-0.7-0.3-0.8-0.6l-0.5,0.5c0.3,0.5,0.7,0.8,1.3,0.8c0.9,0,1.4-0.6,1.4-1.3c0-1.3-1.7-1-1.7-1.7
			c0-0.3,0.3-0.4,0.5-0.4c0.3,0,0.5,0.1,0.6,0.3L48.9,52.7L48.9,52.7z"/>
		<polygon points="50.4,52.4 49.6,52.4 49.6,56.3 50.4,56.3 50.4,52.4 		"/>
		<polygon points="51.1,56.3 52,56.3 52,53.6 52,53.6 54.2,56.4 54.9,56.4 54.9,52.4 54,52.4 54,55 54,55 51.7,52.3 51.1,52.3 
			51.1,56.3 		"/>
		<path d="M57.5,54.2v0.6h0.9c0,0.5-0.5,0.9-1,0.9c-0.8,0-1.2-0.7-1.2-1.4c0-0.6,0.4-1.4,1.2-1.4c0.4,0,0.8,0.3,1,0.6l0.7-0.4
			c-0.3-0.6-1-0.9-1.7-0.9c-1.3,0-2.1,1-2.1,2.1c0,1.1,0.8,2,2.1,2c1.3,0,2-1,2-2.1v-0.1H57.5L57.5,54.2z"/>
	</g>
</g>
</svg>
