<?xml version="1.0" encoding="UTF-8" standalone="no"?>
<!-- Generator: Adobe Illustrator 18.1.1, SVG Export Plug-In . SVG Version: 6.00 Build 0)  -->
<svg id="Lenox-WesLend_Dual_Brand_Logo" xmlns="http://www.w3.org/2000/svg" xml:space="preserve" viewBox="0 339 612 118" version="1.1" y="0px" x="0px" xmlns:xlink="http://www.w3.org/1999/xlink" enable-background="new 0 339 612 118">
	<rect y="346.7" x="289.7" height="100.7" width=".7" fill="#5C5D61"/>
		<path d="m379.8 403.6v1.1c0 0.8-0.1 1.9-0.2 3.4 0 0.6-0.1 1-0.1 1.2l-0.1 0.4c0 0.2 0.2 0.4 0.6 0.5 2.3 0.6 4.3 0.8 6.1 0.8 2.9 0 5.2-0.7 6.8-2.2 1.7-1.4 2.5-3.1 2.5-5.2 0-1-0.2-1.8-0.6-2.5s-1-1.3-1.7-1.7-2-0.7-4.2-1.2c-2.9-0.6-4.7-1.1-5.3-1.7-0.6-0.5-1-1.2-1-2.3s0.4-1.9 1.2-2.5c0.8-0.7 1.9-1.1 3.2-1.1 1 0 1.9 0.2 2.9 0.7 0.8 0.5 1.6 1 1.8 1.4s0.4 1.3 0.4 2.5h1.3c0.1-2.4 0.2-4.1 0.4-5-2-0.8-4.1-1.2-6.1-1.2-2.6 0-4.7 0.6-6 1.8-1.4 1.2-2.2 2.8-2.2 4.8 0 1.1 0.2 1.9 0.7 2.6s1.2 1.3 2.2 1.8 2.9 1 5.8 1.6c1.6 0.4 2.6 0.7 3.2 1.3s0.8 1.3 0.8 2.2c0 1.1-0.5 2.2-1.4 2.9-1 0.8-2.2 1.2-3.7 1.2-1.2 0-2.3-0.2-3.5-0.7-1.1-0.5-1.8-1-2.3-1.3-0.2-0.2-0.4-1-0.4-2.2v-1.4h-1.1zm-16.6-11.3c1-1.2 2.3-1.8 4-1.8 1.1 0 2 0.2 2.8 0.7s1.3 1.1 1.7 1.8c0.5 1.2 0.7 2.4 0.7 3.7v1.2c-1.1 0.1-2 0.1-3.2 0.1-2.8 0-5.3 0-7.6-0.1 0.1-2.4 0.7-4.4 1.6-5.6zm4 7.4c2.8 0 4.9 0 6.6-0.1 0.8-0.1 1.8-0.2 2.8-0.5v-1.3c0-2.8-0.7-4.9-2.3-6.5s-3.6-2.3-6.2-2.3c-1.7 0-3.5 0.5-5.3 1.6-1.8 1-3.1 2.2-3.7 3.4-1.1 1.8-1.6 4-1.6 6.4 0 3.2 1 5.8 2.8 7.7s4.2 2.9 7.2 2.9c1.3 0 2.8-0.1 4-0.5 1.3-0.4 2.5-0.8 3.7-1.6l0.7-1.8-0.4-0.4c-1 0.7-2 1.2-3 1.6s-2 0.5-3.1 0.5c-2.3 0-4.2-0.7-5.5-2.3-1.4-1.4-2.2-3.7-2.3-6.6h5.6v-0.2zm-43.7-10.1l-1.6-7.3c-0.1-0.4-0.1-0.6-0.1-0.8 0-0.4 0.1-0.7 0.5-0.8s1-0.2 1.9-0.2h1.4v-1.4c-2.5 0.1-4.6 0.1-6 0.1-1.6 0-3.4 0-5.4-0.1v1.4h1c1 0 1.6 0.1 1.8 0.5 0.2 0.2 0.6 1.2 1 2.9l3.8 16.6c0.5 1.8 0.8 3.5 1.1 5.2l1.2 5.4h2.2c1.2-3.8 3-8.8 5.5-14.6l4.1-10 3.6 10c2.4 6.5 3.8 10.7 4.6 12.5 0.2 0.5 0.4 1.2 0.7 2.2h2.3c1.6-6.2 3.5-13.2 5.9-20.8 1.8-5.6 2.9-8.8 3.4-9.2 0.2-0.2 0.6-0.4 1.1-0.4h1.2v-1.6c-1.9 0.1-3.5 0.1-4.7 0.1s-2.8 0-4.9-0.1v1.4l2 0.1c0.8 0.1 1.4 0.2 1.7 0.4 0.2 0.1 0.4 0.4 0.4 0.6s0 0.5-0.1 0.8c-1 3.8-1.6 6.4-2 7.7l-4.1 13.9-5.3-15c-1.4-4.2-2.6-7.6-3.5-10.3h-1.3c-2.3 6.1-3.8 10.2-4.7 12.4l-5.2 12.6-3.5-14.2z" fill="#004579"/>
		<path d="m489.4 400.1c0 2.3-0.2 3.8-0.7 4.9s-1.2 1.9-2.2 2.5-2 1-3.2 1c-1.9 0-3.6-0.8-4.9-2.4s-2-3.7-2-6.5c0-2.8 0.6-4.8 1.8-6.1 1.2-1.4 2.8-2.2 4.7-2.2 1.2 0 2.3 0.2 3.5 0.8 1.1 0.6 2.2 1.3 3.1 2.4l-0.1 5.6zm-2.8-10.2c-0.8-0.2-1.8-0.4-2.6-0.4-1.2 0-2.5 0.4-4.1 1.1-1.9 1-3.2 1.8-4.2 2.4-0.8 0.6-1.7 1.7-2.3 3-0.6 1.4-1 3-1 5 0 3.1 0.8 5.6 2.5 7.6 1.7 1.9 3.7 2.8 6.2 2.8 1 0 2-0.2 3.4-0.6 1.9-1.8 3.5-3.1 4.8-4.1 0 1.8-0.1 3.2-0.2 4.2 1.6-0.1 2.5-0.2 2.8-0.2 1.4 0 3 0.1 4.8 0.2v-1.3l-1.6-0.2c-1-0.1-1.6-0.4-1.8-0.8-0.1-0.2-0.2-1.7-0.2-4.1v-15.1l0.1-5.9c0.1-2.2 0.1-4 0.2-5.4l-0.4-0.2c-2.3 0.8-4.7 1.4-7.3 1.6v1.3h1.9c0.7 0 1.2 0.1 1.4 0.4 0.2 0.2 0.4 0.8 0.4 1.8v8c-1-0.6-1.8-0.8-2.8-1.1zm-34.3 0.9v-0.8c0-0.4-0.1-0.5-0.4-0.5l-0.4 0.1c-1.2 0.5-2.4 1-3.4 1.2s-2.2 0.5-3.4 0.6v1.3h1.6c1 0 1.6 0.1 1.8 0.2s0.4 0.5 0.4 1c0 1.4 0.1 3.4 0.1 5.9 0 5.6-0.1 8.6-0.2 9.1s-0.8 0.7-1.9 0.7h-1.5v1.3c2-0.1 3.7-0.1 5.3-0.1 1.4 0 3.5 0 6 0.1v-1.3h-1.6c-0.8 0-1.4-0.1-1.8-0.5-0.2-0.1-0.2-0.6-0.4-1.3 0-2.3-0.1-4.8-0.1-7.6 0-2.4 0.1-4 0.2-4.6 0.2-0.8 0.8-1.7 1.8-2.4s2.2-1.1 3.6-1.1c1.2 0 2.2 0.2 3 0.7s1.4 1.2 1.8 2 0.5 2.3 0.5 4.2c0 4.9-0.1 8.8-0.5 11.6 1.3-0.1 2.5-0.1 3.6-0.1 1.2 0 2.5 0 4.1 0.1v-1.3h-1.5c-0.8 0-1.3-0.2-1.7-0.7-0.2-0.4-0.4-1.8-0.4-4.2l0.1-7c0-2.2-0.2-3.7-0.7-4.8s-1.3-1.8-2.5-2.5c-1.2-0.6-2.5-1-4.1-1-1 0-1.9 0.1-2.9 0.5-0.5 0.1-0.8 0.4-1.2 0.7l-3.4 3 0.1-2.5zm-22.7 2.1c1-1.2 2.3-1.8 4-1.8 1.1 0 2 0.2 2.8 0.7s1.3 1.1 1.7 1.8c0.5 1.2 0.7 2.4 0.7 3.7v1.2c-1.1 0.1-2 0.1-3.2 0.1-2.8 0-5.3 0-7.6-0.1 0.2-2.4 0.6-4.4 1.6-5.6zm4 7.4c2.8 0 4.9 0 6.6-0.1 0.8-0.1 1.8-0.2 2.8-0.5v-1.3c0-2.8-0.7-4.9-2.3-6.5s-3.6-2.3-6.2-2.3c-1.7 0-3.5 0.5-5.3 1.6-1.8 1-3.1 2.2-3.7 3.4-1.1 1.8-1.6 4-1.6 6.5 0 3.2 1 5.8 2.8 7.7s4.2 2.9 7.2 2.9c1.3 0 2.6-0.1 4-0.5 1.3-0.4 2.5-0.8 3.7-1.6l0.7-1.8-0.4-0.4c-1 0.7-2 1.2-3 1.6s-2 0.5-3.1 0.5c-2.3 0-4.2-0.7-5.5-2.3-1.4-1.6-2.2-3.7-2.3-6.6h5.6v-0.3zm-28.8 7.2l-0.1-6.2v-14c0-3.2 0.1-5.2 0.4-5.6 0.2-0.5 0.7-0.7 1.4-0.7h2.8v-1.4c-2.6 0.1-4.7 0.1-6.2 0.1-1.2 0-3.5 0-7-0.1v1.4h2.4c1 0 1.6 0.2 1.8 0.7s0.4 3 0.4 7.4v12.1c0 4.1-0.1 6.4-0.4 7-0.2 0.6-1 1.2-2 1.7v1.2c3-0.1 5.2-0.2 6.6-0.2l10.6 0.1c2.3 0 4.1-0.1 5.4-0.4 0.2-2.4 0.5-5 0.8-7.8h-1.4l-1.3 5.2c-1.2 0.4-2.3 0.5-3.4 0.6-1.6 0.1-3.7 0.2-6.5 0.2-1.3 0-2.8 0-4.2-0.1l-0.1-1.2z" fill="#009DDE"/>
		<path d="m496 427.3v-1.3h-5.6v-9.5h-1.6v10.7h7.2v0.1zm-26-7.6c0.2-0.7 0.5-1.3 0.6-2 0.1 0.6 0.5 1.3 0.8 2.3l1.2 3h-3.8l1.2-3.3zm-2.8 7.6l1.3-3.2h4.8l1.3 3.2h1.7l-4.7-10.7h-1.7l-4.4 10.7h1.7zm-14.4 0v-10.7h-1.6v10.7h1.6zm-17.8-1.7c-0.6 0.5-1.3 0.7-2.2 0.7-0.7 0-1.3-0.1-1.9-0.5s-1.1-0.8-1.3-1.6c-0.2-0.7-0.5-1.4-0.5-2.4 0-0.7 0.1-1.4 0.4-2 0.2-0.7 0.6-1.2 1.2-1.6s1.3-0.6 2.2-0.6c0.7 0 1.4 0.1 1.9 0.5s0.8 1 1.2 1.7l1.4-0.4c-0.4-1-0.8-1.8-1.7-2.3-0.7-0.6-1.8-0.8-2.9-0.8-1 0-1.9 0.2-2.8 0.6-0.8 0.5-1.4 1.1-1.9 1.9s-0.7 1.8-0.7 2.9c0 1 0.2 1.9 0.6 2.9 0.4 0.8 1 1.6 1.8 2 0.7 0.5 1.8 0.7 3 0.7s2.2-0.4 3-1 1.4-1.6 1.7-2.6l-1.6-0.4c0.1 1.1-0.3 1.8-0.9 2.3zm-28.6 1.7v-8.4l6 8.4h1.6v-10.7h-1.4v8.4l-6-8.4h-1.6v10.7h1.4zm-20.1-7.6c0.2-0.7 0.5-1.3 0.6-2 0.1 0.6 0.5 1.3 0.8 2.3l1.2 3h-3.8l1.2-3.3zm-3 7.6l1.3-3.2h4.8l1.3 3.2h1.7l-4.7-10.7h-1.7l-4.4 10.7h1.7zm-21.9 0v-8.4l6 8.4h1.6v-10.7h-1.4v8.4l-6-8.4h-1.6v10.7h1.4zm-15.4 0v-10.7h-1.6v10.7h1.6zm-21.4 0v-4.9h5.4v-1.4h-5.4v-3.4h6.2v-1.3h-7.8v10.7h1.6v0.3z" fill="#004579"/>
		<path d="m271.8 382c-12.5 1.8-37.7 7.6-59.5 39.5h13c16.6-32.4 46.5-39.5 46.5-39.5z" fill="#009DDE"/>
		<path d="m247.8 385.5s-33-5.8-62.4 36h14.9s19.5-36 47.5-36z" fill="#009DDE"/>
		<path d="m212.3 421.5h13c9.5-37 22.6-36 22.6-36s-17.7-2.3-35.6 36z" fill="#009DDE"/>
		<path d="m209.2 350.7l-38.8 34.8h13.7c1.2 0 1.2 1.3 1.2 1.3v28.1c18.2-20.6 36-27.2 47.9-29.2 0.1-0.1 1.3-0.2 1.3-0.2 8.2-1.1 13.2 0 13.2 0l-38.5-34.8z" fill="#004579"/>
		<path d="m227.3 367l-18.3-16.4-38.8 34.8h13.7c1.2 0 1.2 1.3 1.2 1.3v6.2c19.5-2.4 35.3-12.4 42.2-25.9z" fill="#004579"/>
	<g fill="#004579">
		<path d="m15.2 385.1c0 6.4 0 9.7 1.1 10.7 0.8 0.7 2.2 1.1 6 1.1 2.6 0 4.6 0 5.8-1.4 0.6-0.6 1.2-2 1.3-3 0-0.5 0.1-0.7 0.6-0.7 0.4 0 0.4 0.2 0.4 0.8s-0.4 4.2-0.7 5.6c-0.2 1.1-0.6 1.3-3.1 1.3-3.6 0-6.1-0.1-8.4-0.1-2.3-0.1-4-0.1-6-0.1h-2.9c-1.1 0-2.4 0.1-3.4 0.1-0.7 0-1.1-0.1-1.1-0.5 0-0.2 0.2-0.4 0.8-0.4 0.7 0 1.3-0.1 1.8-0.2 1-0.2 1.2-1.3 1.4-2.8 0.2-2 0.2-6 0.2-10.6v-8.8c0-7.6 0-8.9-0.1-10.4-0.1-1.7-0.5-2.5-2.2-2.9-0.4-0.1-1-0.1-1.7-0.1-0.6 0-0.8-0.1-0.8-0.5s0.4-0.5 1.1-0.5c2.3 0 5.4 0.1 6.8 0.1 1.2 0 4.8-0.1 6.7-0.1 0.7 0 1.1 0.1 1.1 0.5s-0.2 0.5-0.8 0.5-1.3 0-1.9 0.1c-1.3 0.2-1.7 1.1-1.8 2.9-0.1 1.6-0.1 3-0.1 10.4v8.9h-0.1z"/>
		<path d="m38 379.9v-8.9c-0.1-1.4-0.5-1.9-1.9-2.3-0.4-0.1-1.1-0.1-1.7-0.1-0.5 0-0.7-0.1-0.7-0.5 0-0.2 0.4-0.4 1-0.4 2.3 0 5 0.1 6.2 0.1h11.9s1.4-0.2 1.8-0.2c0.2 0 0.5-0.2 0.7-0.2s0.2 0.2 0.2 0.4-0.2 0.8-0.4 2.8c0 0.5-0.1 2.3-0.2 2.8 0 0.2-0.1 0.7-0.5 0.7-0.2 0-0.4-0.2-0.4-0.6 0-0.2 0-1.1-0.2-1.6-0.4-0.7-0.7-1.3-2.9-1.6-0.7-0.1-5.9-0.2-6.8-0.2-0.2 0-0.2 0.1-0.2 0.4v10.4c0 0.2 0 0.5 0.2 0.5 1 0 6.6 0 7.7-0.1s1.7-0.2 2-0.6c0.4-0.2 0.5-0.6 0.7-0.6s0.4 0.2 0.4 0.5-0.1 1-0.4 3.1c-0.1 0.8-0.2 2.5-0.2 2.9s0 1-0.5 1c-0.2 0-0.4-0.1-0.4-0.4 0-0.5 0-1-0.1-1.6-0.2-0.8-0.8-1.4-2.4-1.7-0.8-0.1-5.8-0.2-6.8-0.2-0.2 0-0.2 0.2-0.2 0.5v3.4 6.2c0.1 2.9 1.4 3.5 5.9 3.5 1.2 0 3 0 4.1-0.6 1.1-0.5 1.6-1.4 1.9-3.1 0.1-0.5 0.2-0.6 0.5-0.6 0.4 0 0.4 0.6 0.4 1 0 1-0.4 3.8-0.6 4.7-0.2 1.1-0.7 1.1-2.3 1.1-3.2 0-5.9 0-8-0.1-2.2 0-3.7-0.1-5-0.1h-2.5c-1.1 0-2.2 0.1-3 0.1-0.6 0-0.8-0.1-0.8-0.5 0-0.2 0.1-0.5 0.7-0.5s1.1 0 1.6-0.1c0.8-0.2 1.1-1 1.3-2.3 0.2-1.8 0.2-5 0.2-9v-7.2h-0.3z"/>
		<path d="m68.3 393.8c0.1 3.2 0.6 4.2 1.4 4.6 0.7 0.2 1.6 0.2 2.3 0.2 0.5 0 0.7 0.2 0.7 0.5 0 0.4-0.4 0.5-1 0.5-2.9 0-4.8-0.1-5.6-0.1-0.4 0-2.5 0.1-4.7 0.1-0.6 0-1 0-1-0.5 0-0.2 0.4-0.5 0.7-0.5 0.6 0 1.4 0 1.9-0.2 1.1-0.2 1.3-1.4 1.3-5l0.4-25c0-0.8 0.2-1.4 0.7-1.4 0.6 0 1.1 0.6 1.9 1.4 0.6 0.6 7.1 7.2 13.4 13.4 3 2.9 8.8 8.9 9.4 9.5h0.2l-0.3-18.9c0-2.5-0.5-3.4-1.4-3.7-0.6-0.2-1.7-0.2-2.3-0.2s-0.7-0.2-0.7-0.5c0-0.4 0.5-0.4 1.1-0.4 2.3 0 4.6 0.1 5.5 0.1 0.5 0 2.2-0.1 4.2-0.1 0.6 0 1 0 1 0.4 0 0.2-0.2 0.5-0.7 0.5s-0.8 0-1.3 0.1c-1.2 0.4-1.6 1.1-1.6 3.5l-0.5 26.5c0 1-0.4 1.3-0.7 1.3-0.7 0-1.3-0.5-1.8-0.8-2.8-2.5-8.2-7.7-12.7-12.1-4.8-4.6-9.4-9.6-10.2-10.4h-0.1l0.5 17.2z"/>
		<path d="m101.9 383.6c0-7.2 5-16.4 18.2-16.4 11 0 17.8 6.1 17.8 15.7s-7.1 17.3-18.2 17.3c-12.7-0.2-17.8-9.2-17.8-16.6zm29.6 0.7c0-9.4-5.6-15-12.6-15-4.8 0-10.6 2.5-10.6 13 0 8.6 4.9 15.5 13.2 15.5 3.1-0.1 10-1.5 10-13.5z"/>
		<path d="m157.8 381.8c1.4 2 8.6 13.6 9.7 14.9 0.7 1 1.4 1.4 2.4 1.7 0.6 0.2 1.3 0.2 1.7 0.2 0.2 0 0.6 0.2 0.6 0.5 0 0.2-0.4 0.5-0.8 0.5h-1.4c-1.1 0-4.6 0-8-0.1-1.1 0-1.6-0.1-1.6-0.5 0-0.2 0.2-0.5 0.6-0.6 0.2 0 0.5-0.4 0.1-0.8-2.5-4.1-4.9-8-6.8-11.3l-6.4 9.8c-0.5 0.7-0.7 1.3-0.6 1.8 0 0.4 0.5 0.6 0.8 0.6h1c0.2 0 0.6 0.2 0.6 0.5 0 0.4-0.2 0.4-0.8 0.4h-0.8c-0.2 0-3.1-0.1-4.2-0.1-0.8 0-3 0.1-3.7 0.1h-1c-0.5 0-0.6-0.1-0.6-0.4 0-0.2 0.2-0.5 0.6-0.5 0.2 0 1 0 1.6-0.2 1.3-0.4 1.9-1.1 3.5-3.1l8.5-11.5-7.7-12c-1.1-1.7-2-2.5-3.5-3.1-0.7-0.2-1.4-0.2-1.8-0.2-0.2 0-0.5-0.2-0.5-0.5s0.4-0.4 0.8-0.4c1.1 0 4.6 0.1 6.6 0.1 0.6 0 3.2-0.1 4.9-0.1 0.6 0 0.8 0.1 0.8 0.4s-0.2 0.5-0.7 0.5c-0.2 0-0.7 0-1.1 0.1s-0.6 0.4-0.6 0.6 0.2 0.8 0.5 1.2c1.9 3.4 3.7 6.2 5.4 9.1 1.3-1.9 5.2-7.6 5.9-8.8 0.4-0.6 0.5-1.2 0.5-1.6 0-0.2-0.2-0.6-0.7-0.7s-1.1-0.1-1.4-0.1c-0.2 0-0.6-0.1-0.6-0.5 0-0.2 0.2-0.4 1-0.4 1.7 0 3.7 0.1 4.6 0.1s2.6-0.1 4.2-0.1c0.5 0 0.8 0.1 0.8 0.4s-0.2 0.5-0.7 0.5c-0.5 0-1 0.1-1.6 0.2-1 0.2-1.8 1.4-3.1 3.2l-7 10.2z"/>
	</g>
	<g fill="#009DDE">
		<path d="m13.3 433.6c0-1-0.1-2.2-0.1-3-0.2 0.8-0.6 1.7-1 2.6l-1.3 3.4h-0.7l-1.2-3.3c-0.4-1-0.6-1.9-0.8-2.8 0 0.8-0.1 2-0.1 3.1l-0.2 3h-1l0.5-7h1.2l1.2 3.4c0.4 0.8 0.6 1.7 0.7 2.4 0.2-0.7 0.5-1.4 0.8-2.4l1.3-3.4h1.2l0.5 7h-1v-3z"/>
		<path d="m27.2 433.1c0 2.4-1.6 3.7-3.4 3.7-1.9 0-3.4-1.4-3.4-3.6 0-2.3 1.4-3.7 3.4-3.7 2.1 0 3.4 1.5 3.4 3.6zm-5.7 0.2c0 1.6 0.8 2.9 2.4 2.9s2.4-1.3 2.4-2.9c0-1.4-0.7-2.9-2.4-2.9-1.6-0.1-2.4 1.3-2.4 2.9z"/>
		<path d="m33.6 429.8c0.5-0.1 1.2-0.1 1.8-0.1 1 0 1.7 0.2 2.2 0.6 0.4 0.4 0.6 0.8 0.6 1.3 0 1-0.6 1.6-1.3 1.8 0.6 0.2 0.8 0.7 1.1 1.4 0.2 1 0.4 1.7 0.6 1.9h-1c-0.1-0.2-0.2-0.8-0.5-1.7-0.2-1-0.6-1.3-1.4-1.3h-0.8v3h-1.2v-6.9zm1 3.2h1c1 0 1.7-0.5 1.7-1.3 0-1-0.7-1.3-1.7-1.3-0.5 0-0.7 0-1 0.1v2.5z"/>
		<path d="m46.1 430.5h-2.3v-0.7h5.4v0.7h-2.3v6.2h-1v-6.2h0.2z"/>
		<path d="m60.6 436.4c-0.5 0.1-1.3 0.4-2.3 0.4-1.1 0-2-0.2-2.8-1-0.6-0.6-1.1-1.6-1.1-2.6 0-2 1.6-3.6 4-3.6 0.8 0 1.6 0.1 1.8 0.4l-0.2 0.7c-0.4-0.1-0.8-0.4-1.7-0.4-1.8 0-3 1.1-3 2.8 0 1.8 1.1 2.9 2.9 2.9 0.6 0 1.1-0.1 1.3-0.2v-2h-1.4v-0.7h2.4v3.5h0.1z"/>
		<path d="m68.3 434.5l-0.7 2.2h-1l2.5-7h1.1l2.5 7h-1l-0.8-2.2h-2.6zm2.5-0.8l-0.7-2c-0.1-0.5-0.2-0.8-0.4-1.3-0.1 0.4-0.2 0.8-0.4 1.3l-0.7 2h2.2z"/>
		<path d="m84.4 436.4c-0.5 0.1-1.3 0.4-2.3 0.4-1.1 0-2-0.2-2.8-1-0.6-0.6-1.1-1.6-1.1-2.6 0-2 1.6-3.6 4-3.6 0.8 0 1.6 0.1 1.8 0.4l-0.2 0.7c-0.4-0.1-0.8-0.4-1.7-0.4-1.8 0-3 1.1-3 2.8 0 1.8 1.1 2.9 2.9 2.9 0.6 0 1.1-0.1 1.3-0.2v-2h-1.4v-0.7h2.4v3.5h0.1z"/>
		<path d="m94.8 433.4h-2.9v2.5h3.2v0.7h-4.1v-7h4v0.8h-3v2.2h2.9v0.8z"/>
		<path d="m114 436.5c-0.4 0.1-1.1 0.4-1.9 0.4-2 0-3.6-1.2-3.6-3.6 0-2.2 1.6-3.7 3.8-3.7 1 0 1.4 0.2 1.8 0.4l-0.2 0.7c-0.4-0.1-0.8-0.2-1.4-0.2-1.7 0-2.9 1.1-2.9 2.9 0 1.7 1.1 2.8 2.8 2.8 0.6 0 1.2-0.1 1.6-0.2v0.5z"/>
		<path d="m126.4 433.1c0 2.4-1.6 3.7-3.4 3.7-1.9 0-3.2-1.4-3.2-3.6 0-2.3 1.4-3.7 3.4-3.7s3.2 1.5 3.2 3.6zm-5.7 0.2c0 1.6 0.8 2.9 2.4 2.9s2.4-1.3 2.4-2.9c0-1.4-0.7-2.9-2.4-2.9-1.7-0.1-2.4 1.3-2.4 2.9z"/>
		<path d="m132.7 429.8c0.5-0.1 1.2-0.1 1.8-0.1 1 0 1.7 0.2 2.2 0.6 0.4 0.4 0.6 0.8 0.6 1.3 0 1-0.6 1.6-1.3 1.8 0.6 0.2 0.8 0.7 1.1 1.4 0.2 1 0.4 1.7 0.6 1.9h-1c-0.1-0.2-0.2-0.8-0.5-1.7-0.2-1-0.6-1.3-1.4-1.3h-0.8v3h-1v-7h-0.3zm1 3.2h1c1 0 1.7-0.5 1.7-1.3 0-1-0.7-1.3-1.7-1.3-0.5 0-0.7 0-1 0.1v2.5z"/>
		<path d="m143.8 429.8c0.5-0.1 1.1-0.1 1.8-0.1 1 0 1.7 0.2 2 0.6 0.4 0.4 0.6 0.8 0.6 1.4s-0.2 1.1-0.6 1.4c-0.5 0.5-1.3 0.7-2.3 0.7-0.2 0-0.6 0-0.7-0.1v2.8h-1v-6.7h0.2zm0.9 3.3c0.2 0 0.5 0.1 0.8 0.1 1.2 0 1.8-0.5 1.8-1.4s-0.7-1.4-1.7-1.4c-0.4 0-0.7 0-0.8 0.1v2.6h-0.1z"/>
		<path d="m160.9 433.1c0 2.4-1.6 3.7-3.4 3.7-1.9 0-3.2-1.4-3.2-3.6 0-2.3 1.4-3.7 3.4-3.7s3.2 1.5 3.2 3.6zm-5.6 0.2c0 1.6 0.8 2.9 2.4 2.9s2.4-1.3 2.4-2.9c0-1.4-0.7-2.9-2.4-2.9-1.7-0.1-2.4 1.3-2.4 2.9z"/>
		<path d="m167.4 429.8c0.5-0.1 1.2-0.1 1.8-0.1 1 0 1.7 0.2 2.2 0.6 0.4 0.4 0.6 0.8 0.6 1.3 0 1-0.6 1.6-1.3 1.8 0.6 0.2 0.8 0.7 1.1 1.4 0.2 1 0.4 1.7 0.6 1.9h-1c-0.1-0.2-0.2-0.8-0.5-1.7-0.2-1-0.6-1.3-1.4-1.3h-0.8v3h-1v-7h-0.3zm0.8 3.2h1c1 0 1.7-0.5 1.7-1.3 0-1-0.7-1.3-1.7-1.3-0.5 0-0.7 0-1 0.1v2.5z"/>
		<path d="m179.5 434.5l-0.7 2.2h-1l2.5-7h1.1l2.5 7h-1l-0.8-2.2h-2.6zm2.5-0.8l-0.7-2c-0.1-0.5-0.2-0.8-0.4-1.3-0.1 0.4-0.2 0.8-0.4 1.3l-0.7 2h2.2z"/>
		<path d="m190.8 430.5h-2.3v-0.7h5.4v0.7h-2.3v6.2h-0.8v-6.2z"/>
		<path d="m200.9 429.7v7h-1v-7h1z"/>
		<path d="m214 433.1c0 2.4-1.6 3.7-3.4 3.7-1.9 0-3.2-1.4-3.2-3.6 0-2.3 1.4-3.7 3.4-3.7 1.8 0 3.2 1.5 3.2 3.6zm-5.8 0.2c0 1.6 0.8 2.9 2.4 2.9 1.4 0 2.4-1.3 2.4-2.9 0-1.4-0.7-2.9-2.4-2.9-1.6-0.1-2.4 1.3-2.4 2.9z"/>
		<path d="m220.3 436.7v-7h1.1l2.4 3.6c0.5 0.8 1 1.6 1.3 2.3-0.1-1-0.1-1.8-0.1-2.9v-2.9h0.8v7h-1l-2.3-3.6c-0.5-0.7-1-1.6-1.3-2.3 0 0.8 0.1 1.7 0.1 2.9v3h-1.1v-0.1z"/>
	</g>
	<path d="m173.2 420.5v-1.5h-6.7v-11.3h-1.8v12.7h8.5v0.1zm-25.8-9c0.4-0.8 0.6-1.7 0.7-2.4 0.2 0.7 0.5 1.6 1 2.6l1.4 3.5h-4.7l1.6-3.7zm-3.5 9l1.6-3.8h5.8l1.6 3.8h2l-5.6-12.7h-1.9l-5.3 12.7h1.8zm-12.3 0v-12.7h-1.8v12.7h1.8zm-16.2-2c-0.7 0.6-1.6 0.8-2.5 0.8-0.8 0-1.6-0.2-2.3-0.6s-1.2-1-1.6-1.8-0.5-1.8-0.5-2.9c0-0.8 0.1-1.7 0.5-2.4 0.2-0.8 0.8-1.4 1.4-1.9 0.7-0.5 1.6-0.7 2.6-0.7s1.7 0.2 2.3 0.6c0.6 0.5 1.1 1.1 1.3 2l1.8-0.4c-0.4-1.2-1-2-1.9-2.8-1-0.6-2-1-3.5-1-1.2 0-2.3 0.2-3.4 0.7-1 0.5-1.8 1.3-2.3 2.3-0.6 1-0.8 2.2-0.8 3.5 0 1.2 0.2 2.4 0.7 3.4 0.5 1.1 1.2 1.9 2.2 2.4 1 0.6 2.2 0.8 3.6 0.8s2.6-0.4 3.6-1.1c1-0.7 1.7-1.8 2-3.1l-1.9-0.4c-0.1 1.3-0.5 2-1.3 2.6zm-29 2v-10l7.2 10h1.8v-12.7h-1.7v10l-7.2-10h-1.8v12.7h1.7zm-19.1-9c0.4-0.8 0.6-1.7 0.7-2.4 0.2 0.7 0.5 1.6 1 2.6l1.4 3.5h-4.7l1.6-3.7zm-3.5 9l1.6-3.8h5.8l1.6 3.8h2l-5.6-12.7h-1.9l-5.3 12.7h1.8zm-21.1 0v-10l7.2 10h1.8v-12.7h-1.7v10l-7.2-10h-1.8v12.7h1.7zm-13.5 0v-12.7h-1.8v12.7h1.8zm-20.6 0v-5.8h6.4v-1.6h-6.4v-4h7.4v-1.6h-9.2v12.7h1.8v0.3z" fill="#004579"/>
		<polygon points="511.1 383.2 536.3 357.5 542.9 365 529 384.7 529.1 387.2 524.6 387.5 530.8 410 539.8 389.5 543 398.1 531.6 427.4 526.9 427.4 512.5 387.4 510.6 387.2" fill="#004579"/>
		<polygon points="537.8 357.5 548.9 357.4 570.8 379.7 562.3 387.1" fill="#004579"/>
		<polygon points="574.1 400.1 573.8 427.4 558 427.4" fill="#004579"/>
		<polygon points="511.1 427.3 525.2 427.1 511.8 388.5 511 388.6" fill="#004579"/>
		<g fill="#009DDE">
			<path d="m577 392.1l-8.3-0.6c15.4-19.3 31.6-21.7 39.6-22.3 0 0-19.3 3.1-31.3 22.9z"/>
			<path d="m572.4 390.8v-3.7c-9.1 10.6-16.6 20.6-16.6 20.6l-15.1-18.4 14.8 37.9s11.5-19.9 22.3-36.4h-5.4z"/>
		</g>
		<path d="m593.6 371.2s-10 1.8-17.4 7.2c-2.9 2-6.1 4.7-8.3 6.6-7.1 6.6-11.9 10.9-11.9 10.9l-14.4-7.8 14.2 17.2s14-17.9 18.7-22.4c0.8-0.8 2-1.8 3.2-2.9 6-5.1 15.9-8.8 15.9-8.8z" fill="#009DDE"/>
</svg>
