<?xml version="1.0" encoding="utf-8"?>
<!-- Generator: Adobe Illustrator 18.1.1, SVG Export Plug-In . SVG Version: 6.00 Build 0)  -->
<svg version="1.1" id="Lenox-WesLend_Dual_Brand_Logo"
	 xmlns="http://www.w3.org/2000/svg" xmlns:xlink="http://www.w3.org/1999/xlink" x="0px" y="0px" viewBox="0 339 612 118"
	 enable-background="new 0 339 612 118" xml:space="preserve">
<g>
	<rect x="289.7" y="346.7" fill="#5C5D61" width="0.7" height="100.7"/>
	<g>
		<path fill="#004579" d="M379.8,403.6v1.1c0,0.8-0.1,1.9-0.2,3.4c0,0.6-0.1,1-0.1,1.2l-0.1,0.4c0,0.2,0.2,0.4,0.6,0.5
			c2.3,0.6,4.3,0.8,6.1,0.8c2.9,0,5.2-0.7,6.8-2.2c1.7-1.4,2.5-3.1,2.5-5.2c0-1-0.2-1.8-0.6-2.5c-0.4-0.7-1-1.3-1.7-1.7
			c-0.7-0.4-2-0.7-4.2-1.2c-2.9-0.6-4.7-1.1-5.3-1.7c-0.6-0.5-1-1.2-1-2.3c0-1.1,0.4-1.9,1.2-2.5c0.8-0.7,1.9-1.1,3.2-1.1
			c1,0,1.9,0.2,2.9,0.7c0.8,0.5,1.6,1,1.8,1.4c0.2,0.4,0.4,1.3,0.4,2.5h1.3c0.1-2.4,0.2-4.1,0.4-5c-2-0.8-4.1-1.2-6.1-1.2
			c-2.6,0-4.7,0.6-6,1.8c-1.4,1.2-2.2,2.8-2.2,4.8c0,1.1,0.2,1.9,0.7,2.6c0.5,0.7,1.2,1.3,2.2,1.8s2.9,1,5.8,1.6
			c1.6,0.4,2.6,0.7,3.2,1.3c0.6,0.6,0.8,1.3,0.8,2.2c0,1.1-0.5,2.2-1.4,2.9c-1,0.8-2.2,1.2-3.7,1.2c-1.2,0-2.3-0.2-3.5-0.7
			c-1.1-0.5-1.8-1-2.3-1.3c-0.2-0.2-0.4-1-0.4-2.2v-1.4H379.8z M363.2,392.3c1-1.2,2.3-1.8,4-1.8c1.1,0,2,0.2,2.8,0.7
			c0.8,0.5,1.3,1.1,1.7,1.8c0.5,1.2,0.7,2.4,0.7,3.7v1.2c-1.1,0.1-2,0.1-3.2,0.1c-2.8,0-5.3,0-7.6-0.1
			C361.7,395.5,362.3,393.5,363.2,392.3z M367.2,399.7c2.8,0,4.9,0,6.6-0.1c0.8-0.1,1.8-0.2,2.8-0.5v-1.3c0-2.8-0.7-4.9-2.3-6.5
			c-1.6-1.6-3.6-2.3-6.2-2.3c-1.7,0-3.5,0.5-5.3,1.6c-1.8,1-3.1,2.2-3.7,3.4c-1.1,1.8-1.6,4-1.6,6.4c0,3.2,1,5.8,2.8,7.7
			c1.8,1.9,4.2,2.9,7.2,2.9c1.3,0,2.8-0.1,4-0.5c1.3-0.4,2.5-0.8,3.7-1.6l0.7-1.8l-0.4-0.4c-1,0.7-2,1.2-3,1.6c-1,0.4-2,0.5-3.1,0.5
			c-2.3,0-4.2-0.7-5.5-2.3c-1.4-1.4-2.2-3.7-2.3-6.6h5.6V399.7z M323.5,389.6l-1.6-7.3c-0.1-0.4-0.1-0.6-0.1-0.8
			c0-0.4,0.1-0.7,0.5-0.8s1-0.2,1.9-0.2h1.4v-1.4c-2.5,0.1-4.6,0.1-6,0.1c-1.6,0-3.4,0-5.4-0.1v1.4h1c1,0,1.6,0.1,1.8,0.5
			c0.2,0.2,0.6,1.2,1,2.9l3.8,16.6c0.5,1.8,0.8,3.5,1.1,5.2l1.2,5.4h2.2c1.2-3.8,3-8.8,5.5-14.6l4.1-10l3.6,10
			c2.4,6.5,3.8,10.7,4.6,12.5c0.2,0.5,0.4,1.2,0.7,2.2h2.3c1.6-6.2,3.5-13.2,5.9-20.8c1.8-5.6,2.9-8.8,3.4-9.2
			c0.2-0.2,0.6-0.4,1.1-0.4h1.2v-1.6c-1.9,0.1-3.5,0.1-4.7,0.1c-1.2,0-2.8,0-4.9-0.1v1.4l2,0.1c0.8,0.1,1.4,0.2,1.7,0.4
			c0.2,0.1,0.4,0.4,0.4,0.6s0,0.5-0.1,0.8c-1,3.8-1.6,6.4-2,7.7l-4.1,13.9l-5.3-15c-1.4-4.2-2.6-7.6-3.5-10.3h-1.3
			c-2.3,6.1-3.8,10.2-4.7,12.4l-5.2,12.6L323.5,389.6z"/>
		<path fill="#009DDE" d="M489.4,400.1c0,2.3-0.2,3.8-0.7,4.9c-0.5,1.1-1.2,1.9-2.2,2.5s-2,1-3.2,1c-1.9,0-3.6-0.8-4.9-2.4
			s-2-3.7-2-6.5c0-2.8,0.6-4.8,1.8-6.1c1.2-1.4,2.8-2.2,4.7-2.2c1.2,0,2.3,0.2,3.5,0.8c1.1,0.6,2.2,1.3,3.1,2.4L489.4,400.1
			L489.4,400.1z M486.6,389.9c-0.8-0.2-1.8-0.4-2.6-0.4c-1.2,0-2.5,0.4-4.1,1.1c-1.9,1-3.2,1.8-4.2,2.4c-0.8,0.6-1.7,1.7-2.3,3
			c-0.6,1.4-1,3-1,5c0,3.1,0.8,5.6,2.5,7.6c1.7,1.9,3.7,2.8,6.2,2.8c1,0,2-0.2,3.4-0.6c1.9-1.8,3.5-3.1,4.8-4.1
			c0,1.8-0.1,3.2-0.2,4.2c1.6-0.1,2.5-0.2,2.8-0.2c1.4,0,3,0.1,4.8,0.2v-1.3l-1.6-0.2c-1-0.1-1.6-0.4-1.8-0.8
			c-0.1-0.2-0.2-1.7-0.2-4.1v-13.2v-1.9l0.1-5.9c0.1-2.2,0.1-4,0.2-5.4l-0.4-0.2c-2.3,0.8-4.7,1.4-7.3,1.6v1.3h1.9
			c0.7,0,1.2,0.1,1.4,0.4c0.2,0.2,0.4,0.8,0.4,1.8v8C488.4,390.4,487.6,390.2,486.6,389.9z M452.3,390.8v-0.8c0-0.4-0.1-0.5-0.4-0.5
			l-0.4,0.1c-1.2,0.5-2.4,1-3.4,1.2c-1,0.2-2.2,0.5-3.4,0.6v1.3h1.6c1,0,1.6,0.1,1.8,0.2c0.2,0.1,0.4,0.5,0.4,1
			c0,1.4,0.1,3.4,0.1,5.9c0,5.6-0.1,8.6-0.2,9.1c-0.1,0.5-0.8,0.7-1.9,0.7H445v1.3c2-0.1,3.7-0.1,5.3-0.1c1.4,0,3.5,0,6,0.1v-1.3
			h-1.6c-0.8,0-1.4-0.1-1.8-0.5c-0.2-0.1-0.2-0.6-0.4-1.3c0-2.3-0.1-4.8-0.1-7.6c0-2.4,0.1-4,0.2-4.6c0.2-0.8,0.8-1.7,1.8-2.4
			s2.2-1.1,3.6-1.1c1.2,0,2.2,0.2,3,0.7c0.8,0.5,1.4,1.2,1.8,2s0.5,2.3,0.5,4.2c0,4.9-0.1,8.8-0.5,11.6c1.3-0.1,2.5-0.1,3.6-0.1
			c1.2,0,2.5,0,4.1,0.1v-1.3H469c-0.8,0-1.3-0.2-1.7-0.7c-0.2-0.4-0.4-1.8-0.4-4.2l0.1-7c0-2.2-0.2-3.7-0.7-4.8
			c-0.5-1.1-1.3-1.8-2.5-2.5c-1.2-0.6-2.5-1-4.1-1c-1,0-1.9,0.1-2.9,0.5c-0.5,0.1-0.8,0.4-1.2,0.7l-3.4,3L452.3,390.8z M429.6,392.9
			c1-1.2,2.3-1.8,4-1.8c1.1,0,2,0.2,2.8,0.7c0.8,0.5,1.3,1.1,1.7,1.8c0.5,1.2,0.7,2.4,0.7,3.7v1.2c-1.1,0.1-2,0.1-3.2,0.1
			c-2.8,0-5.3,0-7.6-0.1C428.2,396.1,428.6,394.1,429.6,392.9z M433.6,400.3c2.8,0,4.9,0,6.6-0.1c0.8-0.1,1.8-0.2,2.8-0.5v-1.3
			c0-2.8-0.7-4.9-2.3-6.5c-1.6-1.6-3.6-2.3-6.2-2.3c-1.7,0-3.5,0.5-5.3,1.6c-1.8,1-3.1,2.2-3.7,3.4c-1.1,1.8-1.6,4-1.6,6.5
			c0,3.2,1,5.8,2.8,7.7c1.8,1.9,4.2,2.9,7.2,2.9c1.3,0,2.6-0.1,4-0.5c1.3-0.4,2.5-0.8,3.7-1.6l0.7-1.8l-0.4-0.4c-1,0.7-2,1.2-3,1.6
			c-1,0.4-2,0.5-3.1,0.5c-2.3,0-4.2-0.7-5.5-2.3c-1.4-1.6-2.2-3.7-2.3-6.6h5.6V400.3z M404.8,407.5l-0.1-6.2v-14
			c0-3.2,0.1-5.2,0.4-5.6c0.2-0.5,0.7-0.7,1.4-0.7h2.8v-1.4c-2.6,0.1-4.7,0.1-6.2,0.1c-1.2,0-3.5,0-7-0.1v1.4h2.4
			c1,0,1.6,0.2,1.8,0.7c0.2,0.5,0.4,3,0.4,7.4v12.1c0,4.1-0.1,6.4-0.4,7c-0.2,0.6-1,1.2-2,1.7v1.2c3-0.1,5.2-0.2,6.6-0.2l10.6,0.1
			c2.3,0,4.1-0.1,5.4-0.4c0.2-2.4,0.5-5,0.8-7.8h-1.4l-1.3,5.2c-1.2,0.4-2.3,0.5-3.4,0.6c-1.6,0.1-3.7,0.2-6.5,0.2
			c-1.3,0-2.8,0-4.2-0.1L404.8,407.5z"/>
		<path fill="#004579" d="M496,427.3v-1.3h-5.6v-9.5h-1.6v10.7h7.2V427.3z M470,419.7c0.2-0.7,0.5-1.3,0.6-2
			c0.1,0.6,0.5,1.3,0.8,2.3l1.2,3h-3.8L470,419.7z M467.2,427.3l1.3-3.2h4.8l1.3,3.2h1.7l-4.7-10.7h-1.7l-4.4,10.7H467.2z
			 M452.8,427.3v-10.7h-1.6v10.7H452.8z M435,425.6c-0.6,0.5-1.3,0.7-2.2,0.7c-0.7,0-1.3-0.1-1.9-0.5c-0.6-0.4-1.1-0.8-1.3-1.6
			c-0.2-0.7-0.5-1.4-0.5-2.4c0-0.7,0.1-1.4,0.4-2c0.2-0.7,0.6-1.2,1.2-1.6c0.6-0.4,1.3-0.6,2.2-0.6c0.7,0,1.4,0.1,1.9,0.5
			c0.5,0.4,0.8,1,1.2,1.7l1.4-0.4c-0.4-1-0.8-1.8-1.7-2.3c-0.7-0.6-1.8-0.8-2.9-0.8c-1,0-1.9,0.2-2.8,0.6c-0.8,0.5-1.4,1.1-1.9,1.9
			c-0.5,0.8-0.7,1.8-0.7,2.9c0,1,0.2,1.9,0.6,2.9c0.4,0.8,1,1.6,1.8,2c0.7,0.5,1.8,0.7,3,0.7c1.2,0,2.2-0.4,3-1
			c0.8-0.6,1.4-1.6,1.7-2.6l-1.6-0.4C436,424.4,435.6,425.1,435,425.6z M406.4,427.3v-8.4l6,8.4h1.6v-10.7h-1.4v8.4l-6-8.4H405v10.7
			H406.4z M386.3,419.7c0.2-0.7,0.5-1.3,0.6-2c0.1,0.6,0.5,1.3,0.8,2.3l1.2,3h-3.8L386.3,419.7z M383.3,427.3l1.3-3.2h4.8l1.3,3.2
			h1.7l-4.7-10.7H386l-4.4,10.7H383.3z M361.4,427.3v-8.4l6,8.4h1.6v-10.7h-1.4v8.4l-6-8.4H360v10.7H361.4z M346,427.3v-10.7h-1.6
			v10.7H346z M324.6,427.3v-4.9h5.4V421h-5.4v-3.4h6.2v-1.3H323V427h1.6V427.3z"/>
	</g>
	<g>
		<path fill="#009DDE" d="M271.8,382c-12.5,1.8-37.7,7.6-59.5,39.5h13C241.9,389.1,271.8,382,271.8,382z"/>
		<path fill="#009DDE" d="M247.8,385.5c0,0-33-5.8-62.4,36h14.9C200.3,421.5,219.8,385.5,247.8,385.5z"/>
		<path fill="#009DDE" d="M212.3,421.5h13c9.5-37,22.6-36,22.6-36S230.2,383.2,212.3,421.5z"/>
		<path fill="#004579" d="M209.2,350.7l-38.8,34.8c0,0,12.4,0,13.7,0c1.2,0,1.2,1.3,1.2,1.3v28.1c18.2-20.6,36-27.2,47.9-29.2
			c0.1-0.1,1.3-0.2,1.3-0.2c8.2-1.1,13.2,0,13.2,0L209.2,350.7z"/>
		<path fill="#004579" d="M227.3,367L209,350.6l-38.8,34.8c0,0,12.4,0,13.7,0c1.2,0,1.2,1.3,1.2,1.3v6.2
			C204.6,390.5,220.4,380.5,227.3,367z"/>
	</g>
	<g>
		<path fill="#004579" d="M15.2,385.1c0,6.4,0,9.7,1.1,10.7c0.8,0.7,2.2,1.1,6,1.1c2.6,0,4.6,0,5.8-1.4c0.6-0.6,1.2-2,1.3-3
			c0-0.5,0.1-0.7,0.6-0.7c0.4,0,0.4,0.2,0.4,0.8s-0.4,4.2-0.7,5.6c-0.2,1.1-0.6,1.3-3.1,1.3c-3.6,0-6.1-0.1-8.4-0.1
			c-2.3-0.1-4-0.1-6-0.1c-0.6,0-1.7,0-2.9,0c-1.1,0-2.4,0.1-3.4,0.1c-0.7,0-1.1-0.1-1.1-0.5c0-0.2,0.2-0.4,0.8-0.4
			c0.7,0,1.3-0.1,1.8-0.2c1-0.2,1.2-1.3,1.4-2.8c0.2-2,0.2-6,0.2-10.6v-8.8c0-7.6,0-8.9-0.1-10.4c-0.1-1.7-0.5-2.5-2.2-2.9
			c-0.4-0.1-1-0.1-1.7-0.1c-0.6,0-0.8-0.1-0.8-0.5c0-0.4,0.4-0.5,1.1-0.5c2.3,0,5.4,0.1,6.8,0.1c1.2,0,4.8-0.1,6.7-0.1
			c0.7,0,1.1,0.1,1.1,0.5c0,0.4-0.2,0.5-0.8,0.5c-0.6,0-1.3,0-1.9,0.1c-1.3,0.2-1.7,1.1-1.8,2.9c-0.1,1.6-0.1,3-0.1,10.4v8.9H15.2z"
			/>
		<path fill="#004579" d="M38,379.9c0-6.4,0-7.6,0-8.9c-0.1-1.4-0.5-1.9-1.9-2.3c-0.4-0.1-1.1-0.1-1.7-0.1c-0.5,0-0.7-0.1-0.7-0.5
			c0-0.2,0.4-0.4,1-0.4c2.3,0,5,0.1,6.2,0.1c1.4,0,11,0,11.9,0s1.4-0.2,1.8-0.2c0.2,0,0.5-0.2,0.7-0.2c0.2,0,0.2,0.2,0.2,0.4
			c0,0.2-0.2,0.8-0.4,2.8c0,0.5-0.1,2.3-0.2,2.8c0,0.2-0.1,0.7-0.5,0.7c-0.2,0-0.4-0.2-0.4-0.6c0-0.2,0-1.1-0.2-1.6
			c-0.4-0.7-0.7-1.3-2.9-1.6c-0.7-0.1-5.9-0.2-6.8-0.2c-0.2,0-0.2,0.1-0.2,0.4v10.4c0,0.2,0,0.5,0.2,0.5c1,0,6.6,0,7.7-0.1
			s1.7-0.2,2-0.6c0.4-0.2,0.5-0.6,0.7-0.6c0.2,0,0.4,0.2,0.4,0.5s-0.1,1-0.4,3.1c-0.1,0.8-0.2,2.5-0.2,2.9c0,0.4,0,1-0.5,1
			c-0.2,0-0.4-0.1-0.4-0.4c0-0.5,0-1-0.1-1.6c-0.2-0.8-0.8-1.4-2.4-1.7c-0.8-0.1-5.8-0.2-6.8-0.2c-0.2,0-0.2,0.2-0.2,0.5v3.4
			c0,1.4,0,5,0,6.2c0.1,2.9,1.4,3.5,5.9,3.5c1.2,0,3,0,4.1-0.6c1.1-0.5,1.6-1.4,1.9-3.1c0.1-0.5,0.2-0.6,0.5-0.6
			c0.4,0,0.4,0.6,0.4,1c0,1-0.4,3.8-0.6,4.7c-0.2,1.1-0.7,1.1-2.3,1.1c-3.2,0-5.9,0-8-0.1c-2.2,0-3.7-0.1-5-0.1c-0.5,0-1.4,0-2.5,0
			c-1.1,0-2.2,0.1-3,0.1c-0.6,0-0.8-0.1-0.8-0.5c0-0.2,0.1-0.5,0.7-0.5s1.1,0,1.6-0.1c0.8-0.2,1.1-1,1.3-2.3c0.2-1.8,0.2-5,0.2-9
			v-7.2H38z"/>
		<path fill="#004579" d="M68.3,393.8c0.1,3.2,0.6,4.2,1.4,4.6c0.7,0.2,1.6,0.2,2.3,0.2c0.5,0,0.7,0.2,0.7,0.5c0,0.4-0.4,0.5-1,0.5
			c-2.9,0-4.8-0.1-5.6-0.1c-0.4,0-2.5,0.1-4.7,0.1c-0.6,0-1,0-1-0.5c0-0.2,0.4-0.5,0.7-0.5c0.6,0,1.4,0,1.9-0.2
			c1.1-0.2,1.3-1.4,1.3-5l0.4-25c0-0.8,0.2-1.4,0.7-1.4c0.6,0,1.1,0.6,1.9,1.4c0.6,0.6,7.1,7.2,13.4,13.4c3,2.9,8.8,8.9,9.4,9.5h0.2
			L90,372.4c0-2.5-0.5-3.4-1.4-3.7c-0.6-0.2-1.7-0.2-2.3-0.2s-0.7-0.2-0.7-0.5c0-0.4,0.5-0.4,1.1-0.4c2.3,0,4.6,0.1,5.5,0.1
			c0.5,0,2.2-0.1,4.2-0.1c0.6,0,1,0,1,0.4c0,0.2-0.2,0.5-0.7,0.5s-0.8,0-1.3,0.1c-1.2,0.4-1.6,1.1-1.6,3.5l-0.5,26.5
			c0,1-0.4,1.3-0.7,1.3c-0.7,0-1.3-0.5-1.8-0.8c-2.8-2.5-8.2-7.7-12.7-12.1c-4.8-4.6-9.4-9.6-10.2-10.4h-0.1L68.3,393.8z"/>
		<path fill="#004579" d="M101.9,383.6c0-7.2,5-16.4,18.2-16.4c11,0,17.8,6.1,17.8,15.7s-7.1,17.3-18.2,17.3
			C107,400,101.9,391,101.9,383.6z M131.5,384.3c0-9.4-5.6-15-12.6-15c-4.8,0-10.6,2.5-10.6,13c0,8.6,4.9,15.5,13.2,15.5
			C124.6,397.7,131.5,396.3,131.5,384.3z"/>
		<path fill="#004579" d="M157.8,381.8c1.4,2,8.6,13.6,9.7,14.9c0.7,1,1.4,1.4,2.4,1.7c0.6,0.2,1.3,0.2,1.7,0.2
			c0.2,0,0.6,0.2,0.6,0.5c0,0.2-0.4,0.5-0.8,0.5H170c-1.1,0-4.6,0-8-0.1c-1.1,0-1.6-0.1-1.6-0.5c0-0.2,0.2-0.5,0.6-0.6
			c0.2,0,0.5-0.4,0.1-0.8c-2.5-4.1-4.9-8-6.8-11.3l-6.4,9.8c-0.5,0.7-0.7,1.3-0.6,1.8c0,0.4,0.5,0.6,0.8,0.6c0.2,0,0.6,0,1,0
			c0.2,0,0.6,0.2,0.6,0.5c0,0.4-0.2,0.4-0.8,0.4h-0.8c-0.2,0-3.1-0.1-4.2-0.1c-0.8,0-3,0.1-3.7,0.1h-1c-0.5,0-0.6-0.1-0.6-0.4
			c0-0.2,0.2-0.5,0.6-0.5c0.2,0,1,0,1.6-0.2c1.3-0.4,1.9-1.1,3.5-3.1l8.5-11.5l-7.7-12c-1.1-1.7-2-2.5-3.5-3.1
			c-0.7-0.2-1.4-0.2-1.8-0.2c-0.2,0-0.5-0.2-0.5-0.5s0.4-0.4,0.8-0.4c1.1,0,4.6,0.1,6.6,0.1c0.6,0,3.2-0.1,4.9-0.1
			c0.6,0,0.8,0.1,0.8,0.4s-0.2,0.5-0.7,0.5c-0.2,0-0.7,0-1.1,0.1c-0.4,0.1-0.6,0.4-0.6,0.6c0,0.2,0.2,0.8,0.5,1.2
			c1.9,3.4,3.7,6.2,5.4,9.1c1.3-1.9,5.2-7.6,5.9-8.8c0.4-0.6,0.5-1.2,0.5-1.6c0-0.2-0.2-0.6-0.7-0.7c-0.5-0.1-1.1-0.1-1.4-0.1
			c-0.2,0-0.6-0.1-0.6-0.5c0-0.2,0.2-0.4,1-0.4c1.7,0,3.7,0.1,4.6,0.1s2.6-0.1,4.2-0.1c0.5,0,0.8,0.1,0.8,0.4s-0.2,0.5-0.7,0.5
			c-0.5,0-1,0.1-1.6,0.2c-1,0.2-1.8,1.4-3.1,3.2L157.8,381.8z"/>
	</g>
	<g>
		<path fill="#009DDE" d="M13.3,433.6c0-1-0.1-2.2-0.1-3l0,0c-0.2,0.8-0.6,1.7-1,2.6l-1.3,3.4h-0.7L9,433.3c-0.4-1-0.6-1.9-0.8-2.8
			l0,0c0,0.8-0.1,2-0.1,3.1l-0.2,3h-1l0.5-7h1.2l1.2,3.4c0.4,0.8,0.6,1.7,0.7,2.4l0,0c0.2-0.7,0.5-1.4,0.8-2.4l1.3-3.4h1.2l0.5,7h-1
			V433.6z"/>
		<path fill="#009DDE" d="M27.2,433.1c0,2.4-1.6,3.7-3.4,3.7c-1.9,0-3.4-1.4-3.4-3.6c0-2.3,1.4-3.7,3.4-3.7
			C25.9,429.5,27.2,431,27.2,433.1z M21.5,433.3c0,1.6,0.8,2.9,2.4,2.9s2.4-1.3,2.4-2.9c0-1.4-0.7-2.9-2.4-2.9
			C22.3,430.3,21.5,431.7,21.5,433.3z"/>
		<path fill="#009DDE" d="M33.6,429.8c0.5-0.1,1.2-0.1,1.8-0.1c1,0,1.7,0.2,2.2,0.6c0.4,0.4,0.6,0.8,0.6,1.3c0,1-0.6,1.6-1.3,1.8
			l0,0c0.6,0.2,0.8,0.7,1.1,1.4c0.2,1,0.4,1.7,0.6,1.9h-1c-0.1-0.2-0.2-0.8-0.5-1.7c-0.2-1-0.6-1.3-1.4-1.3h-0.8v3h-1.2V429.8z
			 M34.6,433h1c1,0,1.7-0.5,1.7-1.3c0-1-0.7-1.3-1.7-1.3c-0.5,0-0.7,0-1,0.1V433z"/>
		<path fill="#009DDE" d="M46.1,430.5h-2.3v-0.7h5.4v0.7h-2.3v6.2h-1v-6.2H46.1z"/>
		<path fill="#009DDE" d="M60.6,436.4c-0.5,0.1-1.3,0.4-2.3,0.4c-1.1,0-2-0.2-2.8-1c-0.6-0.6-1.1-1.6-1.1-2.6c0-2,1.6-3.6,4-3.6
			c0.8,0,1.6,0.1,1.8,0.4l-0.2,0.7c-0.4-0.1-0.8-0.4-1.7-0.4c-1.8,0-3,1.1-3,2.8c0,1.8,1.1,2.9,2.9,2.9c0.6,0,1.1-0.1,1.3-0.2v-2
			h-1.4v-0.7h2.4v3.5H60.6z"/>
		<path fill="#009DDE" d="M68.3,434.5l-0.7,2.2h-1l2.5-7h1.1l2.5,7h-1l-0.8-2.2H68.3z M70.8,433.7l-0.7-2c-0.1-0.5-0.2-0.8-0.4-1.3
			l0,0c-0.1,0.4-0.2,0.8-0.4,1.3l-0.7,2H70.8z"/>
		<path fill="#009DDE" d="M84.4,436.4c-0.5,0.1-1.3,0.4-2.3,0.4c-1.1,0-2-0.2-2.8-1c-0.6-0.6-1.1-1.6-1.1-2.6c0-2,1.6-3.6,4-3.6
			c0.8,0,1.6,0.1,1.8,0.4l-0.2,0.7c-0.4-0.1-0.8-0.4-1.7-0.4c-1.8,0-3,1.1-3,2.8c0,1.8,1.1,2.9,2.9,2.9c0.6,0,1.1-0.1,1.3-0.2v-2
			h-1.4v-0.7h2.4v3.5H84.4z"/>
		<path fill="#009DDE" d="M94.8,433.4h-2.9v2.5h3.2v0.7H91v-7h4v0.8h-3v2.2h2.9V433.4z"/>
		<path fill="#009DDE" d="M114,436.5c-0.4,0.1-1.1,0.4-1.9,0.4c-2,0-3.6-1.2-3.6-3.6c0-2.2,1.6-3.7,3.8-3.7c1,0,1.4,0.2,1.8,0.4
			l-0.2,0.7c-0.4-0.1-0.8-0.2-1.4-0.2c-1.7,0-2.9,1.1-2.9,2.9c0,1.7,1.1,2.8,2.8,2.8c0.6,0,1.2-0.1,1.6-0.2L114,436.5z"/>
		<path fill="#009DDE" d="M126.4,433.1c0,2.4-1.6,3.7-3.4,3.7c-1.9,0-3.2-1.4-3.2-3.6c0-2.3,1.4-3.7,3.4-3.7
			C125.2,429.5,126.4,431,126.4,433.1z M120.7,433.3c0,1.6,0.8,2.9,2.4,2.9s2.4-1.3,2.4-2.9c0-1.4-0.7-2.9-2.4-2.9
			C121.4,430.3,120.7,431.7,120.7,433.3z"/>
		<path fill="#009DDE" d="M132.7,429.8c0.5-0.1,1.2-0.1,1.8-0.1c1,0,1.7,0.2,2.2,0.6c0.4,0.4,0.6,0.8,0.6,1.3c0,1-0.6,1.6-1.3,1.8
			l0,0c0.6,0.2,0.8,0.7,1.1,1.4c0.2,1,0.4,1.7,0.6,1.9h-1c-0.1-0.2-0.2-0.8-0.5-1.7c-0.2-1-0.6-1.3-1.4-1.3h-0.8v3h-1v-7H132.7z
			 M133.7,433h1c1,0,1.7-0.5,1.7-1.3c0-1-0.7-1.3-1.7-1.3c-0.5,0-0.7,0-1,0.1V433z"/>
		<path fill="#009DDE" d="M143.8,429.8c0.5-0.1,1.1-0.1,1.8-0.1c1,0,1.7,0.2,2,0.6c0.4,0.4,0.6,0.8,0.6,1.4s-0.2,1.1-0.6,1.4
			c-0.5,0.5-1.3,0.7-2.3,0.7c-0.2,0-0.6,0-0.7-0.1v2.8h-1v-6.7H143.8z M144.7,433.1c0.2,0,0.5,0.1,0.8,0.1c1.2,0,1.8-0.5,1.8-1.4
			s-0.7-1.4-1.7-1.4c-0.4,0-0.7,0-0.8,0.1v2.6H144.7z"/>
		<path fill="#009DDE" d="M160.9,433.1c0,2.4-1.6,3.7-3.4,3.7c-1.9,0-3.2-1.4-3.2-3.6c0-2.3,1.4-3.7,3.4-3.7
			C159.7,429.5,160.9,431,160.9,433.1z M155.3,433.3c0,1.6,0.8,2.9,2.4,2.9c1.6,0,2.4-1.3,2.4-2.9c0-1.4-0.7-2.9-2.4-2.9
			C156,430.3,155.3,431.7,155.3,433.3z"/>
		<path fill="#009DDE" d="M167.4,429.8c0.5-0.1,1.2-0.1,1.8-0.1c1,0,1.7,0.2,2.2,0.6c0.4,0.4,0.6,0.8,0.6,1.3c0,1-0.6,1.6-1.3,1.8
			l0,0c0.6,0.2,0.8,0.7,1.1,1.4c0.2,1,0.4,1.7,0.6,1.9h-1c-0.1-0.2-0.2-0.8-0.5-1.7c-0.2-1-0.6-1.3-1.4-1.3h-0.8v3h-1v-7H167.4z
			 M168.2,433h1c1,0,1.7-0.5,1.7-1.3c0-1-0.7-1.3-1.7-1.3c-0.5,0-0.7,0-1,0.1V433z"/>
		<path fill="#009DDE" d="M179.5,434.5l-0.7,2.2h-1l2.5-7h1.1l2.5,7h-1l-0.8-2.2H179.5z M182,433.7l-0.7-2c-0.1-0.5-0.2-0.8-0.4-1.3
			l0,0c-0.1,0.4-0.2,0.8-0.4,1.3l-0.7,2H182z"/>
		<path fill="#009DDE" d="M190.8,430.5h-2.3v-0.7h5.4v0.7h-2.3v6.2h-0.8V430.5z"/>
		<path fill="#009DDE" d="M200.9,429.7v7h-1v-7H200.9z"/>
		<path fill="#009DDE" d="M214,433.1c0,2.4-1.6,3.7-3.4,3.7c-1.9,0-3.2-1.4-3.2-3.6c0-2.3,1.4-3.7,3.4-3.7
			C212.6,429.5,214,431,214,433.1z M208.2,433.3c0,1.6,0.8,2.9,2.4,2.9c1.4,0,2.4-1.3,2.4-2.9c0-1.4-0.7-2.9-2.4-2.9
			C209,430.3,208.2,431.7,208.2,433.3z"/>
		<path fill="#009DDE" d="M220.3,436.7v-7h1.1l2.4,3.6c0.5,0.8,1,1.6,1.3,2.3l0,0c-0.1-1-0.1-1.8-0.1-2.9v-2.9h0.8v7h-1l-2.3-3.6
			c-0.5-0.7-1-1.6-1.3-2.3l0,0c0,0.8,0.1,1.7,0.1,2.9v3h-1.1V436.7z"/>
	</g>
	<path fill="#004579" d="M173.2,420.5V419h-6.7v-11.3h-1.8v12.7h8.5V420.5z M147.4,411.5c0.4-0.8,0.6-1.7,0.7-2.4
		c0.2,0.7,0.5,1.6,1,2.6l1.4,3.5h-4.7L147.4,411.5z M143.9,420.5l1.6-3.8h5.8l1.6,3.8h2l-5.6-12.7h-1.9l-5.3,12.7H143.9z
		 M131.6,420.5v-12.7h-1.8v12.7H131.6z M115.4,418.5c-0.7,0.6-1.6,0.8-2.5,0.8c-0.8,0-1.6-0.2-2.3-0.6c-0.7-0.4-1.2-1-1.6-1.8
		c-0.4-0.8-0.5-1.8-0.5-2.9c0-0.8,0.1-1.7,0.5-2.4c0.2-0.8,0.8-1.4,1.4-1.9c0.7-0.5,1.6-0.7,2.6-0.7c1,0,1.7,0.2,2.3,0.6
		c0.6,0.5,1.1,1.1,1.3,2l1.8-0.4c-0.4-1.2-1-2-1.9-2.8c-1-0.6-2-1-3.5-1c-1.2,0-2.3,0.2-3.4,0.7c-1,0.5-1.8,1.3-2.3,2.3
		c-0.6,1-0.8,2.2-0.8,3.5c0,1.2,0.2,2.4,0.7,3.4c0.5,1.1,1.2,1.9,2.2,2.4c1,0.6,2.2,0.8,3.6,0.8s2.6-0.4,3.6-1.1
		c1-0.7,1.7-1.8,2-3.1l-1.9-0.4C116.6,417.2,116.2,417.9,115.4,418.5z M86.4,420.5v-10l7.2,10h1.8v-12.7h-1.7v10l-7.2-10h-1.8v12.7
		C84.7,420.5,86.4,420.5,86.4,420.5z M67.3,411.5c0.4-0.8,0.6-1.7,0.7-2.4c0.2,0.7,0.5,1.6,1,2.6l1.4,3.5h-4.7L67.3,411.5z
		 M63.8,420.5l1.6-3.8h5.8l1.6,3.8h2l-5.6-12.7h-1.9l-5.3,12.7H63.8z M42.7,420.5v-10l7.2,10h1.8v-12.7H50v10l-7.2-10H41v12.7
		C41,420.5,42.7,420.5,42.7,420.5z M29.2,420.5v-12.7h-1.8v12.7H29.2z M8.6,420.5v-5.8H15v-1.6H8.6v-4h7.4v-1.6H6.8v12.7h1.8V420.5z
		"/>
	<g>
		<polygon fill="#004579" points="511.1,383.2 536.3,357.5 542.9,365 529,384.7 529.1,387.2 524.6,387.5 530.8,410 539.8,389.5 
			543,398.1 531.6,427.4 526.9,427.4 512.5,387.4 510.6,387.2 		"/>
		<polygon fill="#004579" points="537.8,357.5 548.9,357.4 570.8,379.7 562.3,387.1 		"/>
		<polygon fill="#004579" points="574.1,400.1 573.8,427.4 558,427.4 		"/>
		<polygon fill="#004579" points="511.1,427.3 525.2,427.1 511.8,388.5 511,388.6 		"/>
		<g>
			<path fill="#009DDE" d="M577,392.1l-8.3-0.6c15.4-19.3,31.6-21.7,39.6-22.3C608.3,369.2,589,372.3,577,392.1z"/>
			<path fill="#009DDE" d="M572.4,390.8v-3.7c-9.1,10.6-16.6,20.6-16.6,20.6l-15.1-18.4l14.8,37.9c0,0,11.5-19.9,22.3-36.4h-5.4
				V390.8z"/>
		</g>
		<path fill="#009DDE" d="M593.6,371.2c0,0-10,1.8-17.4,7.2c-2.9,2-6.1,4.7-8.3,6.6c-7.1,6.6-11.9,10.9-11.9,10.9l-14.4-7.8
			l14.2,17.2c0,0,14-17.9,18.7-22.4c0.8-0.8,2-1.8,3.2-2.9C583.7,374.9,593.6,371.2,593.6,371.2z"/>
	</g>
</g>
</svg>
