<?xml version="1.0" encoding="utf-8"?>
<!-- Generator: Adobe Illustrator 18.1.1, SVG Export Plug-In . SVG Version: 6.00 Build 0)  -->
<svg version="1.1" id="Lenox-WesLend_Dual_Brand_Logo" xmlns="http://www.w3.org/2000/svg" xmlns:xlink="http://www.w3.org/1999/xlink" x="0px" y="0px"
	 viewBox="0 0 459.5 94.5" enable-background="new 0 0 459.5 94.5" xml:space="preserve">
<g>
	<rect x="222.7" y="12.5" fill="#787A7A" width="0.5" height="70.6"/>
	<g>
		<path fill="#114778" d="M285.9,52.4l0,0.7c0,0.6,0,1.3-0.1,2.4c0,0.4-0.1,0.7-0.1,0.8l0,0.2c0,0.1,0.1,0.3,0.4,0.3
			c1.6,0.4,3,0.6,4.3,0.6c2,0,3.6-0.5,4.8-1.5c1.2-1,1.8-2.2,1.8-3.6c0-0.7-0.1-1.3-0.4-1.8c-0.3-0.5-0.7-0.9-1.1-1.2
			c-0.5-0.3-1.5-0.5-2.9-0.8c-2-0.4-3.2-0.8-3.7-1.1c-0.4-0.4-0.7-0.9-0.7-1.6c0-0.7,0.3-1.3,0.8-1.8c0.6-0.5,1.3-0.7,2.3-0.7
			c0.7,0,1.4,0.2,2,0.5c0.6,0.3,1.1,0.7,1.3,1c0.2,0.3,0.3,0.9,0.3,1.8h0.9c0.1-1.6,0.1-2.8,0.2-3.5c-1.4-0.6-2.9-0.9-4.3-0.9
			c-1.8,0-3.2,0.4-4.2,1.3c-1,0.9-1.5,2-1.5,3.4c0,0.7,0.2,1.4,0.5,1.9c0.3,0.5,0.8,0.9,1.5,1.2c0.7,0.3,2,0.7,4.1,1.1
			c1.1,0.2,1.9,0.5,2.2,0.9c0.4,0.4,0.6,0.9,0.6,1.5c0,0.8-0.3,1.5-1,2.1c-0.7,0.6-1.5,0.9-2.6,0.9c-0.8,0-1.6-0.2-2.4-0.5
			c-0.8-0.3-1.3-0.6-1.6-1c-0.1-0.2-0.2-0.7-0.2-1.5v-1H285.9z M274.2,44.5c0.7-0.8,1.6-1.3,2.8-1.3c0.7,0,1.4,0.2,2,0.5
			c0.6,0.3,1,0.8,1.2,1.3c0.4,0.8,0.5,1.7,0.5,2.6v0.9c-0.7,0.1-1.5,0.1-2.2,0.1c-1.9,0-3.7,0-5.3-0.1
			C273.2,46.7,273.5,45.4,274.2,44.5z M277,49.6c2,0,3.5,0,4.6-0.1c0.6-0.1,1.3-0.2,1.9-0.3l0-0.9c0-1.9-0.5-3.4-1.6-4.5
			c-1.1-1.1-2.5-1.6-4.3-1.6c-1.2,0-2.5,0.4-3.7,1.1c-1.3,0.7-2.2,1.5-2.6,2.3c-0.7,1.3-1.1,2.8-1.1,4.5c0,2.3,0.6,4.1,1.9,5.4
			c1.3,1.3,3,2,5.1,2c1,0,1.9-0.1,2.8-0.4c0.9-0.3,1.8-0.6,2.6-1.1l0.5-1.3l-0.3-0.2c-0.7,0.5-1.4,0.8-2.1,1.1
			c-0.7,0.2-1.4,0.4-2.2,0.4c-1.6,0-2.9-0.5-3.9-1.6c-1-1.1-1.5-2.6-1.6-4.6H277z M246.4,42.6l-1.1-5.1c-0.1-0.2-0.1-0.4-0.1-0.6
			c0-0.3,0.1-0.5,0.3-0.6c0.2-0.1,0.7-0.2,1.4-0.2h1v-1c-1.8,0.1-3.2,0.1-4.2,0.1c-1.1,0-2.4,0-3.8-0.1v1h0.6c0.6,0,1.1,0.1,1.3,0.3
			c0.2,0.2,0.4,0.9,0.7,2l2.7,11.6c0.3,1.3,0.6,2.5,0.8,3.6l0.8,3.8h1.6c0.8-2.7,2.1-6.1,3.9-10.3l2.9-7l2.6,7
			c1.7,4.5,2.7,7.5,3.2,8.8c0.1,0.3,0.3,0.9,0.5,1.6h1.6c1.1-4.4,2.4-9.2,4.1-14.6c1.2-4,2-6.2,2.4-6.5c0.2-0.2,0.4-0.3,0.8-0.3h0.8
			v-1c-1.3,0.1-2.4,0.1-3.3,0.1c-0.8,0-2,0-3.4-0.1v1l1.4,0.1c0.6,0.1,1,0.1,1.1,0.2c0.2,0.1,0.2,0.2,0.2,0.4c0,0.2,0,0.4-0.1,0.6
			c-0.7,2.7-1.1,4.5-1.4,5.4l-2.8,9.8l-3.7-10.5c-1-2.9-1.9-5.3-2.5-7.3h-0.9c-1.6,4.3-2.7,7.2-3.3,8.7l-3.6,8.9L246.4,42.6z"/>
		<path fill="#179BD7" d="M362.7,50c0,1.6-0.2,2.7-0.5,3.5c-0.3,0.7-0.8,1.3-1.5,1.8c-0.7,0.5-1.5,0.7-2.3,0.7
			c-1.3,0-2.5-0.6-3.4-1.7c-0.9-1.1-1.4-2.6-1.4-4.6c0-1.9,0.4-3.3,1.2-4.3c0.8-1,1.9-1.5,3.3-1.5c0.8,0,1.6,0.2,2.4,0.6
			c0.8,0.4,1.5,1,2.2,1.7V50z M360.8,42.8c-0.6-0.2-1.2-0.2-1.8-0.2c-0.9,0-1.8,0.3-2.8,0.8c-1.3,0.7-2.3,1.2-2.9,1.7
			c-0.6,0.4-1.2,1.1-1.6,2.1c-0.5,1-0.7,2.1-0.7,3.5c0,2.2,0.6,4,1.8,5.3c1.2,1.3,2.6,2,4.4,2c0.7,0,1.4-0.1,2.3-0.4
			c1.4-1.2,2.5-2.2,3.4-2.9c0,1.3-0.1,2.3-0.2,3c1.1-0.1,1.8-0.1,2-0.1c1,0,2.1,0,3.4,0.1v-0.9l-1.1-0.1c-0.7-0.1-1.1-0.3-1.3-0.6
			c-0.1-0.2-0.2-1.2-0.2-2.9v-9.3l0-1.3l0.1-4.1c0.1-1.5,0.1-2.8,0.2-3.8l-0.3-0.2c-1.6,0.6-3.3,1-5.2,1.1v0.9h1.3
			c0.5,0,0.9,0.1,1,0.3c0.1,0.2,0.2,0.6,0.2,1.2v5.6C362.1,43.2,361.4,43,360.8,42.8z M336.7,43.5l0-0.6c0-0.2-0.1-0.4-0.2-0.4
			l-0.3,0.1c-0.9,0.4-1.7,0.6-2.4,0.8c-0.7,0.2-1.5,0.3-2.4,0.4v0.9h1.1c0.7,0,1.1,0.1,1.2,0.2c0.1,0.1,0.2,0.3,0.2,0.7
			c0,1,0.1,2.4,0.1,4.1c0,3.9-0.1,6.1-0.2,6.4c-0.1,0.4-0.6,0.5-1.3,0.5h-1.1v0.9c1.4-0.1,2.6-0.1,3.7-0.1c1,0,2.4,0,4.2,0.1v-0.9
			h-1.1c-0.6,0-1-0.1-1.3-0.4c-0.1-0.1-0.2-0.4-0.2-0.9c0-1.6,0-3.4,0-5.3c0-1.7,0.1-2.8,0.2-3.2c0.2-0.6,0.6-1.2,1.3-1.7
			c0.7-0.5,1.5-0.8,2.6-0.8c0.8,0,1.5,0.2,2.1,0.5c0.6,0.4,1,0.8,1.2,1.4c0.2,0.6,0.4,1.6,0.4,2.9c0,3.4-0.1,6.2-0.3,8.2
			c0.9-0.1,1.7-0.1,2.5-0.1c0.8,0,1.8,0,2.9,0.1v-0.9h-1.1c-0.6,0-0.9-0.2-1.1-0.5c-0.1-0.3-0.2-1.2-0.2-2.9l0.1-4.9
			c0-1.5-0.2-2.7-0.5-3.4c-0.4-0.7-0.9-1.3-1.7-1.8c-0.8-0.4-1.8-0.7-2.9-0.7c-0.7,0-1.4,0.1-2,0.3c-0.3,0.1-0.6,0.3-0.9,0.5
			l-2.3,2.1L336.7,43.5z M320.8,45c0.7-0.9,1.6-1.3,2.8-1.3c0.7,0,1.4,0.2,2,0.5c0.6,0.3,1,0.8,1.2,1.3c0.4,0.8,0.5,1.7,0.5,2.6v0.9
			c-0.7,0.1-1.5,0.1-2.2,0.1c-1.9,0-3.7,0-5.3-0.1C319.7,47.1,320.1,45.8,320.8,45z M323.6,50.1c2,0,3.5,0,4.6-0.1
			c0.6-0.1,1.3-0.2,1.9-0.3l0-0.9c0-1.9-0.5-3.4-1.6-4.5c-1.1-1.1-2.5-1.6-4.3-1.6c-1.2,0-2.5,0.4-3.7,1.1c-1.3,0.7-2.2,1.5-2.6,2.3
			c-0.7,1.3-1.1,2.8-1.1,4.5c0,2.3,0.6,4.1,1.9,5.4c1.3,1.3,3,2,5.1,2c1,0,1.9-0.1,2.8-0.4c0.9-0.2,1.8-0.6,2.6-1.1l0.5-1.3
			l-0.3-0.2c-0.7,0.5-1.4,0.8-2.1,1.1c-0.7,0.2-1.4,0.4-2.1,0.4c-1.6,0-2.9-0.5-3.9-1.6c-1-1.1-1.5-2.6-1.6-4.6H323.6z M303.4,55.1
			l0-4.4v-9.9c0-2.3,0.1-3.6,0.2-3.9c0.1-0.3,0.5-0.5,1-0.5h1.9v-1c-1.8,0.1-3.3,0.1-4.4,0.1c-0.8,0-2.4,0-4.9-0.1v1h1.7
			c0.7,0,1.1,0.2,1.3,0.5c0.2,0.4,0.2,2.1,0.2,5.2v8.5c0,2.9-0.1,4.5-0.2,4.9c-0.1,0.4-0.6,0.8-1.5,1.2v0.8c2.1-0.1,3.6-0.2,4.6-0.2
			l7.4,0.1c1.6,0,2.9-0.1,3.8-0.2c0.1-1.7,0.3-3.5,0.6-5.5h-1l-0.9,3.6c-0.8,0.2-1.6,0.4-2.4,0.5c-1.1,0.1-2.6,0.2-4.6,0.2
			c-1,0-1.9,0-3-0.1L303.4,55.1z"/>
		<path fill="#114778" d="M367.3,69v-0.9h-4v-6.6h-1.1V69H367.3z M349.2,63.8c0.2-0.5,0.3-1,0.4-1.4c0.1,0.4,0.3,0.9,0.6,1.6L351,66
			h-2.7L349.2,63.8z M347.1,69l0.9-2.3h3.4l0.9,2.3h1.2l-3.3-7.5h-1.1L346,69H347.1z M337,69v-7.5h-1.1V69H337z M324.6,67.8
			c-0.4,0.3-0.9,0.5-1.5,0.5c-0.5,0-0.9-0.1-1.4-0.3c-0.4-0.2-0.7-0.6-0.9-1.1c-0.2-0.5-0.3-1-0.3-1.7c0-0.5,0.1-1,0.2-1.4
			c0.2-0.5,0.5-0.8,0.9-1.1c0.4-0.3,0.9-0.4,1.6-0.4c0.5,0,1,0.1,1.3,0.4c0.4,0.3,0.6,0.6,0.8,1.2l1-0.2c-0.2-0.7-0.6-1.2-1.1-1.6
			c-0.5-0.4-1.2-0.6-2-0.6c-0.7,0-1.4,0.1-2,0.5c-0.6,0.3-1,0.7-1.4,1.3c-0.3,0.6-0.5,1.3-0.5,2.1c0,0.7,0.1,1.4,0.4,2
			c0.3,0.6,0.7,1.1,1.2,1.4c0.5,0.3,1.2,0.5,2.1,0.5c0.8,0,1.5-0.2,2.1-0.6c0.6-0.4,1-1.1,1.2-1.9l-1.1-0.3
			C325.2,67,325,67.5,324.6,67.8z M304.5,69v-5.9l4.2,5.9h1.1v-7.5h-1v5.9l-4.2-5.9h-1.1V69H304.5z M290.4,63.8
			c0.2-0.5,0.3-1,0.4-1.4c0.1,0.4,0.3,0.9,0.6,1.6l0.8,2.1h-2.7L290.4,63.8z M288.3,69l0.9-2.3h3.4l0.9,2.3h1.2l-3.3-7.5h-1.1
			l-3.1,7.5H288.3z M273,69v-5.9l4.2,5.9h1.1v-7.5h-1v5.9l-4.2-5.9h-1.1V69H273z M262.1,69v-7.5H261V69H262.1z M247.1,69v-3.4h3.8
			v-0.9h-3.8v-2.3h4.4v-0.9H246V69H247.1z"/>
	</g>
	<g>
		<path fill="#179BD7" d="M210,37.3c-8.8,1.3-26.5,5.3-41.7,27.7h9.1C189.1,42.3,210,37.3,210,37.3z"/>
		<path fill="#179BD7" d="M193.2,39.7c0,0-23.2-4-43.8,25.3h10.5C159.9,65,173.6,39.7,193.2,39.7z"/>
		<path fill="#179BD7" d="M168.3,65h9.1c6.7-26,15.8-25.3,15.8-25.3S180.8,38.2,168.3,65z"/>
		<path fill="#114778" d="M166.1,15.3l-27.2,24.4c0,0,8.7,0,9.6,0c0.9,0,0.9,0.9,0.9,0.9v19.7c12.8-14.5,25.3-19.1,33.6-20.5
			c0.1-0.1,1-0.1,1-0.1c5.7-0.8,9.3,0,9.3,0L166.1,15.3z"/>
		<path fill="#114778" d="M178.9,26.8l-12.8-11.5l-27.2,24.4c0,0,8.7,0,9.6,0c0.9,0,0.9,0.9,0.9,0.9V45
			C162.9,43.2,174,36.2,178.9,26.8z"/>
	</g>
	<g>
		<path fill="#114778" d="M30.1,39.5c0,4.4,0,6.8,0.7,7.5c0.6,0.5,1.5,0.8,4.2,0.8c1.8,0,3.2,0,4.1-1c0.4-0.5,0.8-1.4,0.9-2.1
			c0-0.3,0.1-0.5,0.4-0.5c0.2,0,0.3,0.2,0.3,0.6c0,0.4-0.2,3-0.5,4c-0.2,0.8-0.4,0.9-2.2,0.9c-2.5,0-4.3-0.1-5.9-0.1
			c-1.6-0.1-2.8-0.1-4.2-0.1c-0.4,0-1.1,0-2,0c-0.8,0-1.7,0.1-2.4,0.1c-0.4,0-0.7-0.1-0.7-0.4c0-0.2,0.1-0.3,0.6-0.3
			c0.5,0,0.9-0.1,1.3-0.1c0.7-0.1,0.9-0.9,1-1.9c0.2-1.5,0.2-4.2,0.2-7.4v-6.1c0-5.3,0-6.2-0.1-7.4c-0.1-1.2-0.3-1.7-1.5-2
			c-0.3-0.1-0.7-0.1-1.1-0.1c-0.4,0-0.6-0.1-0.6-0.3c0-0.2,0.2-0.3,0.8-0.3c1.6,0,3.8,0.1,4.8,0.1c0.8,0,3.4-0.1,4.7-0.1
			c0.5,0,0.7,0.1,0.7,0.3c0,0.2-0.2,0.3-0.6,0.3c-0.4,0-0.9,0-1.4,0.1c-0.9,0.2-1.2,0.8-1.3,2c-0.1,1.1-0.1,2.1-0.1,7.4V39.5z"/>
		<path fill="#114778" d="M46,35.8c0-4.5,0-5.3,0-6.2c-0.1-1-0.3-1.3-1.3-1.6c-0.2-0.1-0.8-0.1-1.2-0.1c-0.3,0-0.5-0.1-0.5-0.3
			c0-0.2,0.2-0.3,0.7-0.3c1.6,0,3.5,0.1,4.4,0.1c1,0,7.7,0,8.3,0c0.6,0,1-0.1,1.3-0.2c0.2,0,0.3-0.1,0.5-0.1c0.2,0,0.2,0.1,0.2,0.3
			c0,0.2-0.2,0.6-0.2,1.9c0,0.3-0.1,1.6-0.2,1.9c0,0.1-0.1,0.5-0.3,0.5c-0.2,0-0.2-0.1-0.2-0.4c0-0.2,0-0.7-0.2-1.1
			c-0.2-0.5-0.5-0.9-2-1.1c-0.5-0.1-4.2-0.1-4.8-0.1c-0.1,0-0.2,0.1-0.2,0.3v7.3c0,0.2,0,0.3,0.2,0.3c0.7,0,4.7,0,5.3-0.1
			c0.7-0.1,1.2-0.1,1.5-0.5c0.2-0.2,0.3-0.4,0.5-0.4c0.1,0,0.2,0.1,0.2,0.3c0,0.2-0.1,0.7-0.2,2.2c-0.1,0.6-0.1,1.8-0.1,2
			c0,0.2,0,0.7-0.3,0.7c-0.2,0-0.3-0.1-0.3-0.2c0-0.3,0-0.7-0.1-1.1c-0.2-0.6-0.6-1-1.7-1.1c-0.6-0.1-4-0.1-4.8-0.1
			c-0.1,0-0.2,0.1-0.2,0.3v2.4c0,1,0,3.5,0,4.4c0.1,2,1,2.5,4.1,2.5c0.8,0,2.1,0,2.9-0.4c0.8-0.4,1.1-1,1.3-2.2
			c0.1-0.3,0.1-0.5,0.3-0.5c0.2,0,0.3,0.4,0.3,0.7c0,0.7-0.2,2.7-0.4,3.3c-0.2,0.8-0.5,0.8-1.6,0.8c-2.3,0-4.1,0-5.6-0.1
			c-1.5,0-2.6-0.1-3.5-0.1c-0.3,0-1,0-1.7,0c-0.7,0-1.5,0.1-2.1,0.1c-0.4,0-0.6-0.1-0.6-0.3c0-0.1,0.1-0.3,0.5-0.3
			c0.4,0,0.8,0,1.1-0.1c0.6-0.1,0.8-0.7,0.9-1.6C46,46,46,43.7,46,41V35.8z"/>
		<path fill="#114778" d="M67.3,45.5c0.1,2.3,0.5,3,1,3.2c0.5,0.2,1.1,0.2,1.6,0.2c0.3,0,0.5,0.1,0.5,0.3c0,0.2-0.3,0.3-0.7,0.3
			c-2,0-3.4-0.1-4-0.1c-0.3,0-1.7,0.1-3.3,0.1c-0.4,0-0.7,0-0.7-0.3c0-0.2,0.2-0.3,0.5-0.3c0.4,0,1,0,1.4-0.1c0.8-0.2,0.9-1,0.9-3.6
			l0.3-17.5c0-0.6,0.2-1,0.5-1c0.4,0,0.8,0.5,1.3,1c0.4,0.4,5,5.1,9.4,9.4c2.1,2,6.1,6.2,6.6,6.6h0.1l-0.3-13.1c0-1.8-0.3-2.3-1-2.6
			c-0.4-0.2-1.2-0.2-1.6-0.2c-0.4,0-0.5-0.1-0.5-0.3c0-0.2,0.3-0.3,0.8-0.3c1.6,0,3.2,0.1,3.9,0.1c0.3,0,1.5-0.1,3-0.1
			c0.4,0,0.7,0,0.7,0.3c0,0.2-0.2,0.3-0.5,0.3c-0.3,0-0.6,0-0.9,0.1c-0.8,0.2-1.1,0.8-1.1,2.4l-0.3,18.6c0,0.7-0.2,0.9-0.5,0.9
			c-0.5,0-0.9-0.3-1.3-0.6c-1.9-1.8-5.7-5.4-8.9-8.5c-3.3-3.2-6.6-6.8-7.2-7.3h-0.1L67.3,45.5z"/>
		<path fill="#114778" d="M90.9,38.4c0-5,3.5-11.6,12.8-11.6c7.7,0,12.5,4.3,12.5,11c0,6.8-4.9,12.1-12.8,12.1
			C94.5,49.9,90.9,43.6,90.9,38.4z M111.6,38.9c0-6.5-3.9-10.6-8.9-10.6c-3.4,0-7.4,1.8-7.4,9.1c0,6.1,3.5,10.9,9.2,10.9
			C106.8,48.3,111.6,47.3,111.6,38.9z"/>
		<path fill="#114778" d="M130.1,37.1c1,1.5,6,9.5,6.8,10.4c0.5,0.7,1,1,1.7,1.2c0.4,0.1,0.9,0.2,1.2,0.2c0.2,0,0.4,0.1,0.4,0.3
			c0,0.2-0.2,0.3-0.6,0.3h-0.9c-0.7,0-3.2,0-5.7-0.1c-0.8,0-1.1-0.1-1.1-0.3c0-0.2,0.1-0.3,0.4-0.4c0.1,0,0.3-0.2,0.1-0.6
			c-1.8-2.9-3.4-5.7-4.8-7.9l-4.5,6.9c-0.3,0.5-0.5,0.9-0.4,1.3c0,0.3,0.3,0.4,0.6,0.4c0.2,0,0.4,0,0.7,0c0.2,0,0.4,0.2,0.4,0.3
			c0,0.2-0.2,0.3-0.6,0.3h-0.6c-0.2,0-2.2-0.1-2.9-0.1c-0.6,0-2.1,0.1-2.6,0.1H117c-0.3,0-0.5-0.1-0.5-0.3c0-0.2,0.2-0.3,0.4-0.3
			c0.2,0,0.7,0,1.1-0.1c0.9-0.2,1.4-0.7,2.4-2.2l6-8.1l-5.4-8.4c-0.8-1.2-1.4-1.8-2.5-2.2c-0.5-0.1-1-0.2-1.3-0.2
			c-0.2,0-0.3-0.1-0.3-0.3c0-0.2,0.2-0.2,0.6-0.2c0.7,0,3.2,0.1,4.7,0.1c0.4,0,2.3-0.1,3.4-0.1c0.4,0,0.6,0.1,0.6,0.3
			c0,0.2-0.2,0.3-0.5,0.3c-0.2,0-0.5,0-0.7,0.1c-0.3,0.1-0.4,0.2-0.4,0.4c0,0.2,0.1,0.6,0.3,0.9c1.4,2.4,2.6,4.4,3.8,6.4
			c0.9-1.3,3.6-5.3,4.1-6.1c0.2-0.4,0.3-0.8,0.3-1.1c0-0.2-0.2-0.4-0.5-0.5c-0.3-0.1-0.7-0.1-1-0.1c-0.2,0-0.4-0.1-0.4-0.3
			c0-0.2,0.2-0.3,0.7-0.3c1.2,0,2.6,0.1,3.2,0.1c0.6,0,1.8-0.1,3-0.1c0.3,0,0.6,0.1,0.6,0.3c0,0.2-0.2,0.3-0.5,0.3
			c-0.3,0-0.7,0.1-1.1,0.2c-0.7,0.2-1.3,1-2.2,2.3L130.1,37.1z"/>
	</g>
	<g>
		<path fill="#179BD7" d="M28.7,73.5c0-0.7-0.1-1.5-0.1-2.1h0c-0.2,0.6-0.4,1.2-0.7,1.9L27,75.6h-0.5l-0.8-2.3
			c-0.2-0.7-0.4-1.3-0.6-1.9h0c0,0.6-0.1,1.4-0.1,2.2l-0.1,2.1h-0.6l0.4-4.9h0.8l0.9,2.4c0.2,0.6,0.4,1.1,0.5,1.7h0
			c0.1-0.5,0.3-1,0.6-1.7l0.9-2.4h0.9l0.3,4.9h-0.7L28.7,73.5z"/>
		<path fill="#179BD7" d="M38.5,73.1c0,1.7-1.1,2.6-2.4,2.6c-1.4,0-2.3-1-2.3-2.5c0-1.6,1-2.6,2.4-2.6
			C37.6,70.6,38.5,71.7,38.5,73.1z M34.5,73.2c0,1.1,0.6,2,1.7,2c1.1,0,1.6-0.9,1.6-2c0-1-0.5-2-1.6-2C35,71.2,34.5,72.1,34.5,73.2z
			"/>
		<path fill="#179BD7" d="M43,70.8c0.3-0.1,0.8-0.1,1.3-0.1c0.7,0,1.2,0.1,1.5,0.4c0.3,0.2,0.4,0.6,0.4,0.9c0,0.6-0.4,1.1-1,1.2v0
			c0.4,0.1,0.6,0.5,0.8,1c0.2,0.7,0.3,1.2,0.4,1.4h-0.7c-0.1-0.1-0.2-0.6-0.3-1.2c-0.2-0.7-0.4-0.9-1-1h-0.6v2.1H43V70.8z M43.6,73
			h0.7c0.7,0,1.2-0.4,1.2-0.9c0-0.6-0.5-0.9-1.2-0.9c-0.3,0-0.5,0-0.7,0.1V73z"/>
		<path fill="#179BD7" d="M51.7,71.3h-1.6v-0.5H54v0.5h-1.6v4.4h-0.7V71.3z"/>
		<path fill="#179BD7" d="M61.9,75.4c-0.3,0.1-0.9,0.3-1.6,0.3c-0.8,0-1.4-0.2-1.9-0.7c-0.4-0.4-0.7-1.1-0.7-1.8
			c0-1.5,1.1-2.5,2.8-2.5c0.6,0,1.1,0.1,1.3,0.2l-0.2,0.5c-0.3-0.1-0.6-0.2-1.1-0.2c-1.3,0-2.1,0.7-2.1,2c0,1.2,0.8,2,2,2
			c0.4,0,0.7-0.1,0.9-0.1v-1.5h-1v-0.5h1.7V75.4z"/>
		<path fill="#179BD7" d="M67.3,74.1l-0.5,1.5h-0.7l1.8-4.9h0.8l1.8,4.9h-0.7l-0.6-1.5H67.3z M69,73.6l-0.5-1.4
			c-0.1-0.3-0.2-0.6-0.3-0.9h0c-0.1,0.3-0.2,0.6-0.3,0.9l-0.5,1.4H69z"/>
		<path fill="#179BD7" d="M78.6,75.4c-0.3,0.1-0.9,0.3-1.6,0.3c-0.8,0-1.4-0.2-1.9-0.7c-0.4-0.4-0.7-1.1-0.7-1.8
			c0-1.5,1.1-2.5,2.8-2.5c0.6,0,1.1,0.1,1.3,0.2l-0.2,0.5c-0.3-0.1-0.6-0.2-1.1-0.2c-1.3,0-2.1,0.7-2.1,2c0,1.2,0.8,2,2,2
			c0.4,0,0.7-0.1,0.9-0.1v-1.5h-1v-0.5h1.7V75.4z"/>
		<path fill="#179BD7" d="M85.9,73.3h-2v1.8h2.2v0.5h-2.9v-4.9H86v0.5h-2.1v1.6h2V73.3z"/>
		<path fill="#179BD7" d="M99.4,75.5c-0.2,0.1-0.7,0.2-1.4,0.2c-1.5,0-2.5-0.9-2.5-2.5c0-1.5,1.1-2.6,2.7-2.6c0.6,0,1.1,0.1,1.2,0.2
			l-0.2,0.5c-0.2-0.1-0.6-0.2-1-0.2c-1.2,0-2,0.7-2,2c0,1.2,0.7,2,2,2c0.4,0,0.8-0.1,1.1-0.2L99.4,75.5z"/>
		<path fill="#179BD7" d="M108.1,73.1c0,1.7-1.1,2.6-2.4,2.6c-1.4,0-2.3-1-2.3-2.5c0-1.6,1-2.6,2.4-2.6
			C107.2,70.6,108.1,71.7,108.1,73.1z M104.1,73.2c0,1.1,0.6,2,1.7,2c1.1,0,1.7-0.9,1.7-2c0-1-0.5-2-1.6-2
			C104.6,71.2,104.1,72.1,104.1,73.2z"/>
		<path fill="#179BD7" d="M112.5,70.8c0.3-0.1,0.8-0.1,1.3-0.1c0.7,0,1.2,0.1,1.5,0.4c0.3,0.2,0.4,0.6,0.4,0.9c0,0.6-0.4,1.1-1,1.2
			v0c0.4,0.1,0.6,0.5,0.8,1c0.2,0.7,0.3,1.2,0.4,1.4h-0.7c-0.1-0.1-0.2-0.6-0.3-1.2c-0.2-0.7-0.4-0.9-1-1h-0.6v2.1h-0.7V70.8z
			 M113.2,73h0.7c0.7,0,1.2-0.4,1.2-0.9c0-0.6-0.5-0.9-1.2-0.9c-0.3,0-0.5,0-0.7,0.1V73z"/>
		<path fill="#179BD7" d="M120.2,70.8c0.3,0,0.7-0.1,1.3-0.1c0.7,0,1.1,0.1,1.4,0.4c0.3,0.2,0.5,0.6,0.5,1c0,0.4-0.1,0.8-0.4,1.1
			c-0.4,0.4-0.9,0.5-1.6,0.5c-0.2,0-0.4,0-0.5,0v2h-0.7V70.8z M120.9,73.2c0.1,0,0.3,0.1,0.5,0.1c0.8,0,1.3-0.4,1.3-1
			c0-0.7-0.5-1-1.2-1c-0.3,0-0.5,0-0.6,0.1V73.2z"/>
		<path fill="#179BD7" d="M132.3,73.1c0,1.7-1.1,2.6-2.4,2.6c-1.4,0-2.3-1-2.3-2.5c0-1.6,1-2.6,2.4-2.6
			C131.4,70.6,132.3,71.7,132.3,73.1z M128.3,73.2c0,1.1,0.6,2,1.7,2c1.1,0,1.7-0.9,1.7-2c0-1-0.5-2-1.6-2
			C128.9,71.2,128.3,72.1,128.3,73.2z"/>
		<path fill="#179BD7" d="M136.8,70.8c0.3-0.1,0.8-0.1,1.3-0.1c0.7,0,1.2,0.1,1.5,0.4c0.3,0.2,0.4,0.6,0.4,0.9c0,0.6-0.4,1.1-1,1.2
			v0c0.4,0.1,0.6,0.5,0.7,1c0.2,0.7,0.3,1.2,0.4,1.4h-0.7c-0.1-0.1-0.2-0.6-0.3-1.2c-0.2-0.7-0.4-0.9-1-1h-0.6v2.1h-0.7V70.8z
			 M137.4,73h0.7c0.7,0,1.2-0.4,1.2-0.9c0-0.6-0.5-0.9-1.2-0.9c-0.3,0-0.5,0-0.7,0.1V73z"/>
		<path fill="#179BD7" d="M145.4,74.1l-0.5,1.5h-0.7l1.8-4.9h0.8l1.8,4.9h-0.7l-0.6-1.5H145.4z M147.1,73.6l-0.5-1.4
			c-0.1-0.3-0.2-0.6-0.3-0.9h0c-0.1,0.3-0.2,0.6-0.3,0.9l-0.5,1.4H147.1z"/>
		<path fill="#179BD7" d="M153.2,71.3h-1.6v-0.5h3.8v0.5h-1.6v4.4h-0.7V71.3z"/>
		<path fill="#179BD7" d="M160.3,70.7v4.9h-0.7v-4.9H160.3z"/>
		<path fill="#179BD7" d="M169.5,73.1c0,1.7-1.1,2.6-2.4,2.6c-1.4,0-2.3-1-2.3-2.5c0-1.6,1-2.6,2.4-2.6
			C168.6,70.6,169.5,71.7,169.5,73.1z M165.5,73.2c0,1.1,0.6,2,1.7,2c1.1,0,1.6-0.9,1.6-2c0-1-0.5-2-1.6-2
			C166,71.2,165.5,72.1,165.5,73.2z"/>
		<path fill="#179BD7" d="M173.9,75.6v-4.9h0.7l1.6,2.5c0.4,0.6,0.7,1.1,0.9,1.6l0,0c-0.1-0.7-0.1-1.3-0.1-2v-2.1h0.6v4.9h-0.7
			l-1.6-2.5c-0.4-0.5-0.7-1.1-1-1.6l0,0c0,0.6,0,1.2,0,2v2.1H173.9z"/>
	</g>
	<path fill="#114778" d="M140.9,64.3v-1.1h-4.7v-7.9h-1.3v8.9H140.9z M122.8,58c0.2-0.6,0.4-1.1,0.5-1.7c0.1,0.5,0.4,1.1,0.7,1.9
		l1,2.5h-3.2L122.8,58z M120.3,64.3l1.1-2.7h4l1.1,2.7h1.4l-3.9-8.9h-1.4l-3.7,8.9H120.3z M111.7,64.3v-8.9h-1.3v8.9H111.7z
		 M100.4,62.9c-0.5,0.4-1.1,0.6-1.8,0.6c-0.6,0-1.1-0.1-1.6-0.4c-0.5-0.3-0.9-0.7-1.1-1.3c-0.2-0.6-0.4-1.2-0.4-2
		c0-0.6,0.1-1.2,0.3-1.7c0.2-0.6,0.5-1,1-1.3c0.5-0.3,1.1-0.5,1.9-0.5c0.6,0,1.2,0.1,1.6,0.4c0.4,0.3,0.7,0.8,1,1.4l1.2-0.3
		c-0.3-0.8-0.7-1.5-1.4-1.9c-0.7-0.5-1.5-0.7-2.4-0.7c-0.8,0-1.6,0.2-2.3,0.5c-0.7,0.4-1.2,0.9-1.6,1.6c-0.4,0.7-0.6,1.5-0.6,2.4
		c0,0.9,0.2,1.7,0.5,2.4c0.3,0.7,0.8,1.3,1.5,1.7c0.6,0.4,1.5,0.6,2.5,0.6c1,0,1.8-0.3,2.5-0.8c0.7-0.5,1.2-1.3,1.4-2.2l-1.3-0.3
		C101.2,61.9,100.8,62.5,100.4,62.9z M80,64.3v-7l5,7h1.3v-8.9h-1.2v7l-5-7h-1.3v8.9H80z M66.6,58c0.2-0.6,0.4-1.1,0.5-1.7
		c0.1,0.5,0.4,1.1,0.7,1.9l1,2.5h-3.2L66.6,58z M64.1,64.3l1.1-2.7h4l1.1,2.7h1.4l-3.9-8.9h-1.4l-3.7,8.9H64.1z M49.3,64.3v-7l5,7
		h1.3v-8.9h-1.2v7l-5-7h-1.3v8.9H49.3z M39.8,64.3v-8.9h-1.3v8.9H39.8z M25.5,64.3v-4.1H30v-1.1h-4.5v-2.8h5.2v-1.1h-6.5v8.9H25.5z"
		/>
	<g>
		<polygon fill="#114778" points="377.9,38.2 395.7,20.1 400.3,25.3 390.5,39.2 390.6,40.9 387.4,41.2 391.8,56.9 398.1,42.5 
			400.4,48.5 392.3,69.1 389,69.1 378.9,41 377.6,40.9 		"/>
		<polygon fill="#114778" points="396.7,20.1 404.5,20 419.9,35.7 413.9,40.9 		"/>
		<polygon fill="#114778" points="422.2,50 422,69.1 410.8,69.1 		"/>
		<polygon fill="#114778" points="378,69 387.9,68.9 378.5,41.8 377.9,41.9 		"/>
		<g>
			<path fill="#179BD7" d="M424.2,44.3l-5.8-0.4c10.7-13.5,22.1-15.2,27.8-15.6C446.1,28.3,432.6,30.5,424.2,44.3z"/>
			<path fill="#179BD7" d="M421,43.5v-2.6c-6.4,7.4-11.6,14.5-11.6,14.5l-10.6-12.9L409.1,69c0,0,8.1-13.9,15.6-25.5H421z"/>
		</g>
		<path fill="#179BD7" d="M435.8,29.8c0,0-7,1.3-12.2,5.1c-2,1.5-4.3,3.3-5.8,4.6c-5,4.6-8.4,7.7-8.4,7.7l-10.1-5.5l9.9,12
			c0,0,9.9-12.5,13.1-15.7c0.6-0.6,1.4-1.2,2.3-2C428.9,32.3,435.8,29.8,435.8,29.8z"/>
	</g>
</g>
</svg>
