<?xml version="1.0" encoding="utf-8"?>
<!-- Generator: Adobe Illustrator 18.1.1, SVG Export Plug-In . SVG Version: 6.00 Build 0)  -->
<svg version="1.1" id="Live-Chat-Icon-SVG" xmlns="http://www.w3.org/2000/svg" xmlns:xlink="http://www.w3.org/1999/xlink" x="0px" y="0px"
	 viewBox="0 0 311.2 269.2" enable-background="new 0 0 311.2 269.2" xml:space="preserve">
<g>
	<path fill="#999999" d="M146.8,184.8c50,0,90.6-30.5,90.6-68.2c0-37.7-40.6-68.2-90.6-68.2c-50,0-90.6,30.6-90.6,68.2
		c0,17.3,8.5,33,22.5,45l-21.1,42.1c-0.9,1.9-0.2,2.7,1.7,1.7l52.1-26C122.4,182.9,134.3,184.8,146.8,184.8z M146.8,67.6
		c20,0,38.7,5.7,52.5,16.1c12.2,9.2,18.9,20.8,18.8,32.8c0,26.5-32.6,49-71.3,49c-38.6,0-71.3-22.4-71.3-48.9
		C75.5,90,108.2,67.6,146.8,67.6z"/>
	<path fill="#999999" d="M233.3,209.4c9.7-8.4,15.7-19.3,15.7-31.3c0-9.7-3.9-18.7-10.5-26.2c-2.7,4.3-6,8.5-9.8,12.4
		c3.1,4.2,4.8,8.9,4.8,13.7c0,17.3-21.8,32-47.5,32c-15.8,0-30-5.5-38.8-13.8c-0.2,0-0.3,0-0.5,0c-6.7,0-13.3-0.5-19.7-1.5
		c9,17.9,32,30.6,58.9,30.6c8.7,0,17-1.3,24.5-3.7l35.1,17.5c1.9,0.9,2.7,0.2,1.7-1.7L233.3,209.4z"/>
	<path fill="#999999" d="M146.9,129.2c7,0,12.7-5.7,12.7-12.7c0-7-5.7-12.7-12.7-12.7c-7,0-12.7,5.7-12.7,12.7
		C134.2,123.5,139.9,129.2,146.9,129.2z"/>
	<path fill="#999999" d="M186.8,129.2c7,0,12.7-5.7,12.7-12.7c0-7-5.7-12.7-12.7-12.7c-7,0-12.7,5.7-12.7,12.7
		C174.1,123.5,179.8,129.2,186.8,129.2z"/>
	<path fill="#999999" d="M106.9,129.2c7,0,12.7-5.7,12.7-12.7c0-7-5.7-12.7-12.7-12.7c-7,0-12.7,5.7-12.7,12.7
		C94.2,123.5,99.9,129.2,106.9,129.2z"/>
</g>
</svg>
