<?xml version="1.0" encoding="utf-8"?>
<!-- Generator: Adobe Illustrator 18.1.1, SVG Export Plug-In . SVG Version: 6.00 Build 0)  -->
<svg version="1.1" id="Login-Icon-SVG" xmlns="http://www.w3.org/2000/svg" xmlns:xlink="http://www.w3.org/1999/xlink" x="0px" y="0px"
	 viewBox="0 0 311.2 269.2" enable-background="new 0 0 311.2 269.2" xml:space="preserve">
<g>
	<g>
		<g>
			<polygon fill-rule="evenodd" clip-rule="evenodd" fill="#999999" points="140.4,104.1 191.2,134.6 140.4,165.1 140.4,144.8 
				79.4,144.8 79.4,124.4 140.4,124.5 140.4,104.1 			"/>
		</g>
		<path fill-rule="evenodd" clip-rule="evenodd" fill="#999999" d="M150.5,53.3c-30.1,0-56.3,16.4-70.4,40.7h25
			c11.2-12.5,27.3-20.3,45.4-20.3c33.7,0,61,27.3,61,61s-27.3,61-61,61c-18,0-34.2-7.9-45.4-20.3h-25c14.1,24.3,40.3,40.7,70.4,40.7
			c44.9,0,81.3-36.4,81.3-81.3S195.5,53.3,150.5,53.3z"/>
	</g>
</g>
</svg>
