<?xml version="1.0" encoding="utf-8"?>
<!-- Generator: Adobe Illustrator 18.1.1, SVG Export Plug-In . SVG Version: 6.00 Build 0)  -->
<svg version="1.1" id="Phone-Icon-SVG" xmlns="http://www.w3.org/2000/svg" xmlns:xlink="http://www.w3.org/1999/xlink" x="0px" y="0px"
	 viewBox="0 0 311.2 269.2" enable-background="new 0 0 311.2 269.2" xml:space="preserve">
<path fill="#999999" d="M224.2,157.6c-0.6,8.8-6.7,5.6-7.4,5.1c0,0-2.8-1.6-5.2-3.1c-2.3-1.4-3.1-3.7-2.6-7.9
	c0.3-2.6,0.5-5.2,0.5-7.8c0-33.7-27.4-61.2-61.2-61.2c-1.7,0-3.5,0.1-5.1,0.2c-4.3,0.4-6.6,0.1-9.1-4.4c-0.9-1.6-1.7-3.3-2.3-4.6
	c-0.7-1.4-1.2-2.4-1.2-2.4c0.9-1.7,2.4-3.2,5-3.7c4.1-0.7,8.4-1.1,12.7-1.1c42.5,0,77.1,34.6,77.1,77.1
	C225.4,148.6,224.6,153.1,224.2,157.6z M190.6,147.3c-1.9-0.9-3.8-2.3-5.6-3.3c-5.5-3.1-3.9-4-5.7-9.1
	c-3.8-11.1-12.4-21.2-24.2-22.5c-2.6-0.3-4.8-1.7-6-4.1c-1.3-2.7-3.4-6.2-4.4-8.8c-0.9-2.2,1-2.9,3.6-2.9
	c26.1,0,47.3,21.2,47.3,47.3c0,0.4,0,0.9,0,1.3C195.3,149.4,192.9,148.4,190.6,147.3z M144.4,184.2c7.7,4.3,14.8-0.2,17.4-2.3
	l-2.7,2.5l9.2-10.2c0,0,1.8-3.3,7.3-0.5c5.5,2.8,22.4,13.5,22.4,13.5l11.4,7.9c0,0,5.7,3.9-2,12.7l-10.7,8.9c0,0-0.4,0.2-1,0.5l0,0
	c-18.4,10-48.3-5.8-48.3-5.8c-65-33.2-72.5-82-73.3-89.4c-0.4-1.8-0.7-3.4-0.8-4.7c-0.7-6.4,3.5-12.7,3.5-12.7l7.2-8.9
	c8.7-8.3,13-2.7,13-2.7l8.3,10.2c0,0,13.4,16.2,16.6,21.7c3.2,5.5-0.2,7.5-0.2,7.5l-9.9,8.9c-5.3,6.9,3.4,16,3.4,16
	C133.6,179.5,137.4,180.3,144.4,184.2z"/>
</svg>
