<?xml version="1.0" encoding="utf-8"?>
<!-- Generator: Adobe Illustrator 18.1.1, SVG Export Plug-In . SVG Version: 6.00 Build 0)  -->
<svg version="1.1" id="Search_Icon_SVG" xmlns="http://www.w3.org/2000/svg" xmlns:xlink="http://www.w3.org/1999/xlink" x="0px" y="0px"
	 viewBox="0 0 311.2 269.2" enable-background="new 0 0 311.2 269.2" xml:space="preserve">
<g>
	<g>
		<g>
			<path fill="#999999" d="M207.3,155.4c4.8-10.1,7.5-21.4,7.5-33.4c0-43.4-35.2-78.6-78.6-78.6c-43.4,0-78.6,35.2-78.6,78.6
				c0,24.4,11.1,46.2,28.6,60.7c7.8,6.4,16.8,11.4,26.7,14.5c7.4,2.3,15.2,3.5,23.4,3.5c17.4,0,33.4-5.7,46.4-15.3l0,0
				C193.2,177.6,201.6,167.3,207.3,155.4L207.3,155.4z M136.2,179.1c-31.5,0-57.1-25.6-57.1-57.1c0-31.5,25.6-57.1,57.1-57.1
				c31.5,0,57.1,25.6,57.1,57.1C193.3,153.5,167.7,179.1,136.2,179.1z"/>
			<path fill="#999999" d="M247.4,192.2l-27.8-25.6c-6.3,11.5-14.8,21.6-25.1,29.6l26.7,24.5c7.9,7.2,20.1,6.7,27.4-1.2
				c3.4-3.7,5.1-8.4,5.1-13.1C253.7,201.2,251.6,196,247.4,192.2z"/>
		</g>
		<path fill="#999999" d="M93.8,136.7c0-31.5,25.5-57,57-57c3.9,0,7.7,0.4,11.4,1.1c-7.5-4.8-16.5-7.6-26.1-7.6
			c-26.9,0-48.8,21.8-48.8,48.8c0,9.6,2.8,18.5,7.6,26.1C94.2,144.4,93.8,140.6,93.8,136.7z"/>
	</g>
</g>
</svg>
